<?xml version="1.0" encoding="UTF-8"?>
<svg width="256.08" height="256.08" enable-background="new 0 0 100 100" fill="#333333" version="1.1"
     viewBox="0 0 85.36 85.36" xml:space="preserve" xmlns="http://www.w3.org/2000/svg"
     xmlns:cc="http://creativecommons.org/ns#" xmlns:dc="http://purl.org/dc/elements/1.1/"
     xmlns:rdf="http://www.w3.org/1999/02/22-rdf-syntax-ns#">
    <metadata>
        <rdf:RDF>
            <cc:Work rdf:about="">
                <dc:format>image/svg+xml</dc:format>
                <dc:type rdf:resource="http://purl.org/dc/dcmitype/StillImage"/>
                <dc:title/>
            </cc:Work>
        </rdf:RDF>
    </metadata>
    <path d="m27.345-37.335-17.33-30.02v-10.079h0.772c2.118 0 3.842-1.724 3.842-3.842 0-2.119-1.724-3.843-3.842-3.843h-15.182c-2.119 0-3.842 1.724-3.842 3.843s1.724 3.842 3.842 3.842h0.927v9.811l-17.487 30.288c-1.362 2.36-1.362 5.291 0 7.651 1.363 2.36 3.902 3.827 6.626 3.827h35.048c2.726 0 5.265-1.467 6.625-3.827 1.365-2.359 1.365-5.292 1e-3 -7.651zm-31.74-42.656c-0.708 0-1.285-0.576-1.285-1.285s0.576-1.285 1.285-1.285h15.183c0.708 0 1.283 0.577 1.283 1.285s-0.575 1.285-1.283 1.285h-2.052c-0.706 0-1.279 0.573-1.279 1.279v11.7c0 0.225 0.06 0.445 0.172 0.639l10.577 18.324c-0.034 5e-3 -0.069 3e-3 -0.104 9e-3 -0.345 0.055-0.651 0.102-0.889 0.102-0.916 0-1.835-0.238-2.731-0.708-0.43-0.228-0.889-0.335-1.344-0.335-0.969 0-1.91 0.488-2.456 1.361-1.131 1.813-3.039 2.894-5.104 2.894-2.854 0-5.286-2.003-5.914-4.87-0.203-0.932-0.851-1.702-1.732-2.061-0.351-0.145-0.723-0.215-1.092-0.215-0.554 0-1.107 0.16-1.584 0.474-0.987 0.646-2.112 0.987-3.25 0.987-0.517 0-1.074-0.097-1.753-0.307-0.155-0.049-0.311-0.081-0.467-0.103l2.373-4.109h11.535c0.706 0 1.279-0.573 1.279-1.279s-0.573-1.279-1.279-1.279h-10.058l1.872-3.241h7.688c0.707 0 1.279-0.573 1.279-1.279s-0.572-1.279-1.279-1.279h-6.21l1.808-3.13c0.026-0.036 0.051-0.074 0.076-0.112h4.825c0.706 0 1.279-0.573 1.279-1.279s-0.573-1.279-1.279-1.279h-4.606v-3.242h4.604c0.706 0 1.279-0.573 1.279-1.279s-0.573-1.279-1.279-1.279h-4.604v-3.824c0-0.706-0.573-1.279-1.279-1.279h-2.205z"/>
    <path d="m-4.538-97.293c3.839 0 6.962-3.123 6.962-6.962s-3.124-6.962-6.962-6.962-6.962 3.123-6.962 6.962 3.124 6.962 6.962 6.962zm0-11.367c2.429 0 4.405 1.976 4.405 4.404s-1.976 4.404-4.405 4.404-4.405-1.976-4.405-4.404 1.977-4.404 4.405-4.404z"/>
    <path d="m1.003-91.752c0 2.272 1.849 4.121 4.121 4.121s4.121-1.849 4.121-4.121-1.849-4.121-4.121-4.121-4.121 1.849-4.121 4.121zm4.121-1.563c0.862 0 1.563 0.701 1.563 1.563s-0.7 1.563-1.563 1.563-1.563-0.701-1.563-1.563 0.701-1.563 1.563-1.563z"/>
    <path d="m24.048-38.2-5.3303-9.2335c-3.1435-7.7748-21.883-13.817-29.584-2.4987l-6.7736 11.732c-1.1756 2.0369-1.1756 4.5667 0 6.6036 1.1764 2.0369 3.3678 3.3031 5.7189 3.3031h30.25c2.3528 0 4.5442-1.2662 5.7181-3.3031 1.1781-2.0361 1.1781-4.5676 8.63e-4 -6.6036z"
          fill="#fc0" stroke-width=".8631"/>
    <path d="m143.85-25.061c-0.554 0-1.107 0.16061-1.584 0.47461-0.987 0.646-2.112 0.98698-3.25 0.98698-0.517 0-1.0743-0.09729-1.7533-0.30729-0.39216 0.03998-0.72173 0.07672-1.1191 0.78581l-6.7734 11.732c-1.1756 2.0369-1.1756 4.5666 0 6.6035 1.1764 2.0369 3.3676 3.3027 5.7188 3.3027h30.25c2.3528 0 4.5443-1.2658 5.7181-3.3027 1.1781-2.0361 1.1786-4.5675 1e-3 -6.6035l-5.3307-9.2337c-0.45242-0.78245-0.70174-0.56556-1.5046-0.50452-0.916 0-1.8351-0.23768-2.7311-0.70768-0.43-0.228-0.88941-0.33529-1.3444-0.33529-0.969 0-1.9097 0.48833-2.4557 1.3613-1.131 1.813-3.0392 2.8939-5.1042 2.8939-2.854 0-5.2861-2.0034-5.9141-4.8704-0.203-0.932-0.85077-1.7015-1.7318-2.0605-0.351-0.145-0.7228-0.21549-1.0918-0.21549z"
          fill="#ffc107"/>
    <path d="m94.563-31.292-17.33-30.02v-10.079h0.772c2.118 0 3.842-1.724 3.842-3.842 0-2.119-1.724-3.843-3.842-3.843h-15.182c-2.119 0-3.842 1.724-3.842 3.843s1.724 3.842 3.842 3.842h0.927v9.811l-17.487 30.288c-1.362 2.36-1.362 5.291 0 7.651 1.363 2.36 3.902 3.827 6.626 3.827h35.048c2.726 0 5.265-1.467 6.625-3.827 1.365-2.359 1.365-5.292 1e-3 -7.651zm-31.74-42.656c-0.708 0-1.285-0.576-1.285-1.285s0.576-1.285 1.285-1.285h15.183c0.708 0 1.283 0.577 1.283 1.285s-0.575 1.285-1.283 1.285h-2.052c-0.706 0-1.279 0.573-1.279 1.279v11.7c0 0.225 0.06 0.445 0.172 0.639l10.577 18.324c-0.034 5e-3 -0.069 3e-3 -0.104 9e-3 -0.345 0.055-0.651 0.102-0.889 0.102-0.916 0-1.835-0.238-2.731-0.708-0.43-0.228-0.889-0.335-1.344-0.335-0.969 0-1.91 0.488-2.456 1.361-1.131 1.813-3.039 2.894-5.104 2.894-2.854 0-5.286-2.003-5.914-4.87-0.203-0.932-0.851-1.702-1.732-2.061-0.351-0.145-0.723-0.215-1.092-0.215-0.554 0-1.107 0.16-1.584 0.474-0.987 0.646-2.112 0.987-3.25 0.987-0.517 0-1.074-0.097-1.753-0.307-0.155-0.049-0.311-0.081-0.467-0.103l2.373-4.109h11.535c0.706 0 1.279-0.573 1.279-1.279s-0.573-1.279-1.279-1.279h-10.058l1.872-3.241h7.688c0.707 0 1.279-0.573 1.279-1.279s-0.572-1.279-1.279-1.279h-6.21l1.808-3.13c0.026-0.036 0.051-0.074 0.076-0.112h4.825c0.706 0 1.279-0.573 1.279-1.279s-0.573-1.279-1.279-1.279h-4.606v-3.242h4.604c0.706 0 1.279-0.573 1.279-1.279s-0.573-1.279-1.279-1.279h-4.604v-3.824c0-0.706-0.573-1.279-1.279-1.279h-2.205z"
          fill="#ffc107"/>
    <path d="m62.68-91.25c3.839 0 6.962-3.123 6.962-6.962s-3.124-6.962-6.962-6.962-6.962 3.123-6.962 6.962 3.124 6.962 6.962 6.962zm0-11.367c2.429 0 4.405 1.976 4.405 4.404s-1.976 4.404-4.405 4.404-4.405-1.976-4.405-4.404 1.977-4.404 4.405-4.404z"/>
    <path d="m68.221-85.709c0 2.272 1.849 4.121 4.121 4.121s4.121-1.849 4.121-4.121-1.849-4.121-4.121-4.121-4.121 1.849-4.121 4.121zm4.121-1.563c0.862 0 1.563 0.701 1.563 1.563s-0.7 1.563-1.563 1.563-1.563-0.701-1.563-1.563 0.701-1.563 1.563-1.563z"/>
    <path d="m62.824-79.076c-2.119 0-3.8424 1.7241-3.8424 3.8431s1.7244 3.8418 3.8424 3.8418h0.92709v9.8112l-17.488 30.288c-1.362 2.36-1.362 5.291 0 7.651 1.363 2.36 3.9023 3.8268 6.6263 3.8268h35.048c2.726 0 5.265-1.4668 6.625-3.8268 1.365-2.359 1.3647-5.292 6.7e-4 -7.651l-17.33-30.02v-10.079h0.77213c2.118 0 3.8418-1.7238 3.8418-3.8418 0-2.119-1.7238-3.8431-3.8418-3.8431zm0 2.5579h15.183c0.708 0 1.2826 0.57716 1.2826 1.2852s-0.57455 1.2852-1.2826 1.2852h-2.0521c-0.706 0-1.2793 0.57265-1.2793 1.2786v11.7c0 0.225 0.0599 0.44533 0.17188 0.63933 5.4876 9.5256 10.979 18.748 16.42 28.173 1.1773 2.0361 1.1768 4.5675-1e-3 6.6035-1.1738 2.0369-3.3653 3.3027-5.7181 3.3027h-30.25c-2.3511 0-4.5423-1.2658-5.7188-3.3027-1.1756-2.0369-1.1756-4.5666 0-6.6035 3.1075-5.7233 6.5841-11.164 9.7988-16.73h11.534c0.706 0 1.2793-0.57265 1.2793-1.2786s-0.5733-1.2793-1.2793-1.2793h-10.058l1.8724-3.2409h7.6875c0.707 0 1.2793-0.57265 1.2793-1.2786s-0.57229-1.2793-1.2793-1.2793h-6.2096l1.8079-3.1302c0.026-0.036 0.0512-0.07398 0.0762-0.11198h4.8249c0.706 0 1.2786-0.57265 1.2786-1.2786s-0.57264-1.2793-1.2786-1.2793h-4.6061v-3.2422h4.6042c0.706 0 1.2786-0.57265 1.2786-1.2786 0-0.706-0.57265-1.2793-1.2786-1.2793h-4.6042v-3.8236c0-0.706-0.57265-1.2793-1.2786-1.2793h-2.2051v-6.33e-4c-0.708 0-1.2852-0.57616-1.2852-1.2852s0.57615-1.2852 1.2852-1.2852z"/>
    <path d="m142.31-70.382c3.839 0 6.962-3.123 6.962-6.962s-3.124-6.962-6.962-6.962-6.962 3.123-6.962 6.962 3.124 6.962 6.962 6.962zm0-11.367c2.429 0 4.405 1.976 4.405 4.404s-1.976 4.404-4.405 4.404-4.405-1.976-4.405-4.404 1.977-4.404 4.405-4.404z"/>
    <path d="m147.85-64.841c0 2.272 1.849 4.121 4.121 4.121s4.121-1.849 4.121-4.121-1.849-4.121-4.121-4.121-4.121 1.849-4.121 4.121zm4.121-1.563c0.862 0 1.563 0.701 1.563 1.563s-0.7 1.563-1.563 1.563-1.563-0.701-1.563-1.563 0.701-1.563 1.563-1.563z"/>
    <path d="m142.46-58.208c-2.119 0-3.8424 1.7241-3.8424 3.8431s1.7244 3.8418 3.8424 3.8418h0.92709v9.8112l-17.488 30.288c-1.362 2.36-1.362 5.291 0 7.651 1.363 2.36 3.9023 3.8268 6.6263 3.8268h35.048c2.726 0 5.265-1.4668 6.625-3.8268 1.365-2.359 1.3647-5.292 6.7e-4 -7.651l-17.33-30.02v-10.079h0.77213c2.118 0 3.8418-1.7238 3.8418-3.8418 0-2.119-1.7238-3.8431-3.8418-3.8431zm0 2.5579h15.183c0.708 0 1.2826 0.57716 1.2826 1.2852s-0.57455 1.2852-1.2826 1.2852h-2.0521c-0.706 0-1.2793 0.57265-1.2793 1.2786v11.7c0 0.225 0.0599 0.44533 0.17188 0.63933 5.4876 9.5256 10.979 18.748 16.42 28.173 1.1773 2.0361 1.1768 4.5675-1e-3 6.6035-1.1738 2.0369-3.3653 3.3027-5.7181 3.3027h-30.25c-2.3511 0-4.5423-1.2658-5.7188-3.3027-1.1756-2.0369-1.1756-4.5666 0-6.6035 3.1075-5.7233 6.5841-11.164 9.7988-16.73h11.534c0.706 0 1.2793-0.57265 1.2793-1.2786s-0.5733-1.2793-1.2793-1.2793h-10.058l1.8724-3.2409h7.6875c0.707 0 1.2793-0.57265 1.2793-1.2786s-0.57229-1.2793-1.2793-1.2793h-6.2096l1.8079-3.1302c0.026-0.036 0.0512-0.07398 0.0762-0.11198h4.8249c0.706 0 1.2786-0.57265 1.2786-1.2786s-0.57264-1.2793-1.2786-1.2793h-4.6061v-3.2422h4.6042c0.706 0 1.2786-0.57265 1.2786-1.2786 0-0.706-0.57265-1.2793-1.2786-1.2793h-4.6042v-3.8236c0-0.706-0.57265-1.2793-1.2786-1.2793h-2.2051v-6.33e-4c-0.708 0-1.2852-0.57616-1.2852-1.2852s0.57615-1.2852 1.2852-1.2852z"/>
    <path d="m37.059 58.744c-2.2112-0.32662-2.3044 1.9671-6.5155 1.5857-5.6047-0.50763-8.1127 8.7086-10.465 13.248-1.2754 2.21-1.2754 4.9546 0 7.1646 1.2764 2.21 3.6538 3.5833 6.2046 3.5833h32.82c2.5527 0 4.9304-1.3733 6.2039-3.5833 1.2782-2.2091 1.2787-4.9555 1e-3 -7.1646-4.2135-6.4854-4.4947-12.791-9.3202-11.757-3.1472 0.67457-7.0832 2.4643-10.614 1.8173-3.1634-0.57966-5.133-4.4245-8.3146-4.8944z"
          fill="#ffc107" stroke-width="1.085"/>
    <path d="m52.102 13.924c3.839 0 6.962-3.123 6.962-6.962s-3.124-6.962-6.962-6.962-6.962 3.123-6.962 6.962 3.124 6.962 6.962 6.962zm0-11.367c2.429 0 4.405 1.976 4.405 4.404s-1.976 4.404-4.405 4.404-4.405-1.976-4.405-4.404 1.977-4.404 4.405-4.404z"
          fill="#212121" stroke-width="1.0003"/>
    <path d="m36.145 12.264c0 2.272 1.849 4.121 4.121 4.121s4.121-1.849 4.121-4.121c0-2.272-1.849-4.121-4.121-4.121s-4.121 1.849-4.121 4.121zm4.121-1.563c0.862 0 1.563 0.701 1.563 1.563s-0.7 1.563-1.563 1.563-1.563-0.701-1.563-1.563 0.701-1.563 1.563-1.563z"
          fill="#212121"/>
    <path transform="scale(.33333)"
          d="m170.52 185.13c-0.80449 0.02714-1.6577 0.13419-2.5625 0.32812-1.4761 0.31639-3.0254 0.7268-4.6035 1.166 4.5341 6.6662 7.879 18.064 15.41 29.656 3.8331 6.6273 3.8307 14.867-0.00391 21.494-3.8205 6.63-11.029 9.6772-18.611 10.75l-31.43 4.4473h48.586c7.6581 0 14.791-4.12 18.611-10.75 3.8346-6.6273 3.835-14.865 0.00196-21.492-11.851-18.24-13.331-36.007-25.398-35.6z"
          fill="#dea806"/>
    <path d="m33.09 26.098c-2.119 0-3.8424 1.7241-3.8424 3.8431s1.7244 3.8418 3.8424 3.8418h0.92709v9.8112l-15.488 28.288c-1.362 2.36-1.362 5.9577 0 8.3177 1.363 2.36 3.9023 5.1601 6.6263 5.1601h35.048c2.726 0 5.265-2.8001 6.625-5.1601 1.365-2.359 1.3647-5.9587 6.7e-4 -8.3177l-15.33-28.02v-10.079h0.77213c2.118 0 3.8418-1.7238 3.8418-3.8418 0-2.119-1.7238-3.8431-3.8418-3.8431zm0 2.5579h19.183c0.708 0 1.2826 0.57716 1.2826 1.2852s-0.57455 1.2852-1.2826 1.2852h-2.0521c-0.706 0-1.2793 0.57265-1.2793 1.2786v11.7c0 0.225 0.0599 0.44533 0.17188 0.63933 5.4876 9.5256 8.979 16.748 14.42 26.173 1.1773 2.0361 1.1768 5.2342-1e-3 7.2702-1.1738 2.0369-3.3653 4.636-5.7181 4.636h-30.25c-2.3511 0-4.5423-2.5991-5.7188-4.636-1.1756-2.0369-1.1756-5.2333 0-7.2702l11.147-20.529h7.0208c0.707 0 1.2793-0.57265 1.2793-1.2786s-0.57229-1.2793-1.2793-1.2793h-5.5429l1.8079-3.1302c0.026-0.036 0.0512-0.07398 0.0762-0.11198h4.1582c0.706 0 1.2786-0.57265 1.2786-1.2786s-0.57264-1.2793-1.2786-1.2793h-3.9394v-3.2422h3.9375c0.706 0 1.2786-0.57265 1.2786-1.2786 0-0.706-0.57265-1.2793-1.2786-1.2793h-3.9375v-3.8236c0-0.706-0.57265-1.2793-1.2786-1.2793h-2.2051v-6.33e-4c-0.708 0-1.2852-0.57616-1.2852-1.2852s0.57615-1.2852 1.2852-1.2852z"
          fill="#212121"/>
    <path d="m45.676 19.571c0 2.272 1.849 4.121 4.121 4.121s4.121-1.849 4.121-4.121-1.849-4.121-4.121-4.121-4.121 1.849-4.121 4.121zm4.121-1.563c0.862 0 1.563 0.701 1.563 1.563s-0.7 1.563-1.563 1.563-1.563-0.701-1.563-1.563 0.701-1.563 1.563-1.563z"
          fill="#212121"/>
    <ellipse cx="42.891" cy="23.406" rx="1.2094" ry="1.2094" fill="#212121" stroke="#212121" stroke-linecap="round"
             stroke-linejoin="round" stroke-width=".9146"/></svg>
