<?xml version="1.0" encoding="UTF-8"?>
<svg version="1.1" viewBox="0 0 1000 666.67" xml:space="preserve" xmlns="http://www.w3.org/2000/svg"
     xmlns:cc="http://creativecommons.org/ns#" xmlns:dc="http://purl.org/dc/elements/1.1/"
     xmlns:rdf="http://www.w3.org/1999/02/22-rdf-syntax-ns#"><metadata><rdf:RDF><cc:Work rdf:about=""><dc:format>image/svg+xml</dc:format><dc:type
        rdf:resource="http://purl.org/dc/dcmitype/StillImage"/><dc:title/></cc:Work></rdf:RDF></metadata>
    <defs><clipPath id="a"><path d="m3517.6 756.3c-24.79 0-44.88 20.09-44.88 44.871 0 24.797 20.09 44.887 44.88 44.887s44.88-20.09 44.88-44.887c0-24.781-20.09-44.871-44.88-44.871"/></clipPath></defs>
    <g transform="matrix(1.3333 0 0 -1.3333 0 666.67)"><g transform="scale(.1)"><path d="m663.9 1633.6 19.262 917.29v0.02c0.602 31.04 4.301 55.57 9.922 74.64 8.504 28.67 20.914 44.79 34.152 54.33 13.27 9.5 28.301 12.88 43.625 12.91 16.055 0.03 32.004-3.94 43.735-8.01 5.863-2.02 10.679-4.06 13.957-5.55 1.637-0.74 2.894-1.35 3.707-1.76l0.883-0.45 0.175-0.09 0.325 0.61-0.328-0.61h3e-3l0.325 0.61-0.328-0.61 7.132 13.2-7.84-12.79 871.74-534.36c21.95-13.46 45.78-19.7 68.91-19.69 34.6 0.02 67.59 13.74 92.1 37.15 24.52 23.37 40.52 56.85 40.48 95.37v1132.4c0.01 36.41 14.72 69.23 38.57 93.11 23.88 23.86 56.71 38.56 93.11 38.57h1490.5l62.96 0.44h-0.1c18.43-0.03 35.3 5.28 49.46 14.27 21.32 13.53 36.67 34.67 46.87 58.47 10.19 23.86 15.31 50.63 15.33 76.78 0 8.69-0.57 17.31-1.75 25.73-0.49 3.49-1.15 7.43-2.46 11.64-1.3 4.2-3.3 8.75-6.59 13.02-3.43 4.47-7.86 8.08-12.74 10.37-4.88 2.31-10.09 3.29-15.03 3.28-12.3-0.13-22.95-5.32-32.02-12.27-9.03-7.07-16.61-16.23-21.19-27.05-6.15-14.68-8.97-30.18-8.97-45.56 0.01-23.01 6.24-45.75 17.16-66 10.94-20.23 26.63-38.04 46.04-50.92 27.21-18.03 59.14-26.19 90.97-26.19 28.02 0.01 56.08 6.28 81.42 18.05 23.22 10.8 43.94 27.24 60.34 47.24 16.38 20.01 28.48 43.64 33.92 69.04 1.79 8.43 3.49 20.46 3.51 33.24-0.01 7.6-0.6 15.45-2.46 23.11-1.89 7.61-4.99 15.37-11.36 21.87-3.45 3.48-7.46 6.28-11.8 8.13-4.33 1.85-8.94 2.71-13.31 2.7-7.25-0.02-13.72-2.18-19.31-5.1-8.39-4.44-15.19-10.66-20.77-17.22-5.55-6.64-9.81-13.44-12.42-20.52-3.52-9.73-5-19.76-5-29.6 0.01-15.34 3.53-30.23 8.8-43.79 13.41-34.4 38.43-62.02 68.7-81.37 30.31-19.35 66-30.65 101.92-32.35 3.31-0.16 6.64-0.24 9.97-0.24 39.35 0.03 79.87 10.88 111.59 36.63 29.25 23.92 48.64 60.38 48.76 98.78 0 6.97-0.66 14-2.05 20.98v0.01c-2.62 12.88-8.39 25.55-17.39 35.91-4.52 5.15-9.91 9.72-16.28 13.08-6.35 3.36-13.76 5.43-21.59 5.42l-1.66-0.03c-8.3-0.27-16.15-2.8-22.59-6.98-9.71-6.3-16.06-15.66-20-25.58-3.95-9.99-5.68-20.82-5.69-31.64 0.01-11.05 1.82-22.12 5.6-32.32 11.56-30.98 32.77-57.37 59.16-76.41 26.41-19.02 58.15-30.79 91.2-31.96 1.79-0.06 3.57-0.09 5.35-0.09 32.09 0.01 63.42 9.95 90.08 27.03 26.66 17.09 48.79 41.41 62.1 70.71 6.11 13.59 9.84 30.94 9.9 48.97-0.02 12.38-1.82 25.09-6.79 36.87-4.9 11.7-13.53 22.72-26.36 29.14-5.59 2.84-11.64 4.43-17.62 4.42-5.14 0.01-10.09-1.17-14.41-3.12-7.61-3.44-13.27-8.85-17.82-14.66-6.8-8.8-11.4-18.91-14.81-28.6-3.37-9.72-5.43-18.88-6.32-26.18-0.58-4.86-0.87-9.75-0.87-14.65 0.02-26.55 8.38-53.38 25.43-74.66 15.25-18.98 35.13-32.68 56.87-41.57 21.76-8.89 45.43-13.07 68.94-13.08 10.92 0 21.81 0.91 32.47 2.69 22.41 3.76 44.61 11.28 64.59 22.83 19.95 11.54 37.72 27.18 50.64 47.13 12.85 19.86 19.57 43.29 19.58 66.78l-0.01 1.56v0.02c-0.15 9.86-1.54 22.39-5.19 34.89-1.84 6.25-4.25 12.48-7.62 18.36-3.37 5.86-7.73 11.46-13.78 15.84-7.34 5.32-15.53 8.58-23.97 8.57-4.9 0.02-9.65-1.12-13.77-3.02-7.25-3.36-12.5-8.63-16.59-14.21-6.12-8.45-9.98-18.06-12.69-27.37-2.66-9.34-4.07-18.23-4.26-25.81v0.01l-0.03-2.66c0.04-30.68 11.43-60.95 31.48-84.09 16.98-19.54 38.56-33.55 61.85-42.89 23.3-9.34 48.37-14.09 73-15.08 3.19-0.12 6.4-0.19 9.61-0.19 43.7 0.03 89.38 11.85 123.57 42.4 26.3 23.73 42.71 58.41 42.82 93.83 0.01 14.51-2.85 29.16-9.18 42.88v-0.01c-4.84 10.44-11.98 21.27-23.46 28.83l-0.01 0.01c-8.55 5.6-18.28 8.12-27.61 8.09-14.45-0.05-27.98-5.56-39.07-14.11-11.05-8.6-19.93-20.49-23.93-34.76-1.95-7.04-2.83-14.15-2.83-21.15 0.01-13.9 3.43-27.27 8.76-39.57 5.35-12.31 12.64-23.61 20.83-33.56 36.53-44.21 92.86-66.4 148.63-66.44 45.57 0.01 91.4 14.9 126.15 46.28 11.76 10.65 22.32 23.48 30.13 37.91 7.79 14.42 12.87 30.57 12.88 47.56 0.01 6.26-0.7 12.62-2.21 18.94v0.01c-3.84 15.85-13.58 28.92-25.64 38.22-12.11 9.26-26.83 15.07-42.27 15.13-11.96 0.06-24.55-3.85-34.61-12.66-7.1-6.15-12.23-13.77-15.38-21.83-3.17-8.07-4.46-16.53-4.46-24.88 0.12-21.54 8.14-42.69 19.09-59.83 17.28-26.81 41.51-48.9 69.2-64.42 27.7-15.5 58.94-24.48 90.43-24.5 20.4 0 40.92 3.81 60.33 12.14 39.25 16.97 66.9 52.5 78.97 91.54v0.01c1.85 6.06 3.54 13.96 4.87 23.18 1.32 9.2 2.23 19.6 2.23 30.18-0.02 12.14-1.13 24.48-4.78 35.89-1.85 5.71-4.38 11.24-8.08 16.27-3.68 5.01-8.72 9.52-14.97 12.37-6.74 3.09-13.56 4.85-20.4 4.86-4.93 0.01-9.8-0.96-14.18-2.81-7.72-3.25-13.57-8.9-17.78-15.08-6.33-9.35-9.76-20.2-12.03-31.59-2.21-11.39-3.07-23.39-3.08-34.89 0-10.45 0.73-20.45 1.97-29.19 0.63-4.37 1.38-8.43 2.29-12.15 0.92-3.73 1.94-7.07 3.4-10.34v0.01c10.8-24 29.17-43.18 50.98-56.45 21.85-13.26 47.23-20.76 72.92-21.17l2.34-0.02c50.09 0.09 97.04 24.57 130.18 60.25 9.16 9.89 17.68 21.2 24.07 33.91 6.37 12.68 10.62 26.9 10.62 42.11v0.16h-1.64l1.64-0.02v0.02h-1.64l1.64-0.02v0.25c-0.14 16.1-5.83 31.65-15.59 44.09-4.91 6.21-10.9 11.64-17.94 15.73-7.02 4.08-15.14 6.77-23.83 7.29-1.15 0.07-2.3 0.11-3.44 0.11-10.85 0.02-20.97-3.26-29.39-8.52-12.7-7.93-21.91-19.83-28.44-32.86-6.5-13.09-10.35-27.5-11.4-41.59-0.28-3.86-0.42-7.75-0.42-11.65 0.02-32.48 9.85-66.15 33.29-91.1 9.84-10.52 21.35-17.17 33.18-20.51 11.86-3.39 23.69-3.9 36-3.97h0.06 163.43c73.76 0 146.41 2.21 219.58 2.21h201.53 218.73 211.92 181.1 126.27 47.44c36.41-0.01 69.24-14.71 93.12-38.57 23.85-23.88 38.56-56.7 38.57-93.11v-378.98h30v378.98c-0.01 89.3-72.38 161.67-161.69 161.68h-47.44-126.27-181.1-211.92-218.73-201.53c-73.78 0-146.43-2.22-219.58-2.21h-163.43 0.07c-11.46 0.02-20.56 0.68-27.82 2.8-7.27 2.17-13.05 5.36-19.67 12.28-16.86 17.75-25.14 43.96-25.11 70.5 0 3.16 0.11 6.32 0.34 9.47 0.92 13.39 5.97 28.52 13.47 39.05 3.72 5.29 7.96 9.43 12.26 12.09 4.35 2.66 8.62 3.99 13.58 4.01l1.6-0.05c3.73-0.24 7.22-1.34 10.63-3.31 5.08-2.92 9.85-7.94 13.23-14.11 3.4-6.14 5.33-13.31 5.34-19.9l15 0.08-15 0.17v-0.49c0-9.56-2.67-19.16-7.43-28.65-4.75-9.47-11.57-18.69-19.26-26.98-28.16-30.45-68.21-50.74-108.18-50.64l-1.88 0.01c-20.09 0.3-40.54 6.31-57.79 16.82-17.28 10.5-31.24 25.35-39.21 43.11-0.35 0.74-1.01 2.65-1.62 5.16-1.9 7.64-3.43 20.7-3.4 34.21-0.05 15.12 1.95 31.21 5.95 41.67 1.94 5.24 4.33 8.88 6.18 10.59 0.93 0.88 1.68 1.34 2.38 1.64 0.7 0.28 1.4 0.46 2.56 0.47 1.58 0 4.17-0.42 7.92-2.14 1.05-0.5 2.05-1.24 3.32-2.92 1.87-2.46 3.88-7.16 5.12-13.27 1.28-6.09 1.88-13.47 1.87-21.06 0.01-8.83-0.78-17.96-1.93-25.92-1.12-7.92-2.66-14.79-3.85-18.63v0.01c-9.69-31.68-32.53-60.22-62.12-72.8-15.42-6.61-31.81-9.7-48.5-9.71-25.72-0.01-52.17 7.44-75.77 20.67-23.6 13.21-44.27 32.15-58.64 54.49-8.42 12.92-14.42 30.02-14.31 43.59 0 5.27 0.83 9.96 2.38 13.9 1.57 3.96 3.78 7.23 7.14 10.17h0.01c4.27 3.66 9.01 5.25 14.92 5.3 7.5 0.06 16.6-3.19 23.99-8.92 7.45-5.69 12.9-13.54 14.74-21.42v0.01c0.95-3.96 1.39-7.94 1.39-11.97 0.02-10.88-3.32-22.3-9.27-33.29-5.92-10.97-14.4-21.38-23.86-29.92-28.33-25.67-66.89-38.54-106.03-38.54-47.95-0.03-95.81 19.37-125.48 55.52-6.63 8.04-12.43 17.14-16.46 26.43-4.04 9.3-6.29 18.73-6.28 27.62 0 4.49 0.56 8.86 1.75 13.15 1.89 6.97 6.85 14.02 13.38 19.05 6.5 5.07 14.3 7.88 20.7 7.82 4.2-0.02 7.79-1 11.21-3.21h-0.01c4.85-3.11 9.31-8.99 12.63-16.27v-0.01c4.36-9.46 6.43-19.71 6.43-30.31 0.12-25.83-12.8-53.63-32.85-71.49-26.72-24.07-65.09-34.77-103.54-34.74-2.81 0-5.62 0.06-8.42 0.17-21.57 0.85-43.4 5.06-63.02 12.94-19.65 7.89-37.03 19.37-50.38 34.73-15.21 17.43-24.17 41.29-24.12 64.41l0.02 2c0.06 3.13 0.65 8.06 1.83 13.24 1.73 7.79 4.93 16.33 8.49 21.64 1.74 2.68 3.52 4.47 4.72 5.29 1.27 0.83 1.64 0.86 2.28 0.9 0.7-0.01 2.63-0.2 6.42-2.91 1.53-1.09 3.48-3.23 5.31-6.44 2.78-4.79 5.14-11.76 6.61-18.89 1.49-7.12 2.16-14.42 2.23-19.82v0.01-1.2c0.02-17.71-5.19-35.73-14.75-50.47-9.97-15.38-24-27.93-40.5-37.47-16.47-9.55-35.38-16.01-54.51-19.21-9.01-1.51-18.26-2.28-27.52-2.28-19.94 0-39.87 3.59-57.58 10.85-17.73 7.25-33.18 18.07-44.84 32.58-12.27 15.21-18.85 35.66-18.82 55.88 0 3.72 0.22 7.43 0.65 11.08 0.79 7.07 4.36 21.05 9.74 31.43 2.65 5.23 5.76 9.55 8.39 11.91 1.3 1.19 2.44 1.91 3.3 2.29l2.15 0.5c0.82-0.01 2.02-0.16 4.11-1.2 5.46-2.8 9.28-7.22 12.25-14.08 2.92-6.79 4.43-15.79 4.41-25.15 0.06-13.56-3.21-27.89-7.21-36.57-10.67-23.53-28.84-43.68-50.98-57.85-22.12-14.19-48.06-22.31-73.89-22.29-1.44 0-2.87 0.02-4.3 0.07-26.53 0.91-52.8 10.51-74.71 26.32-21.92 15.78-39.33 37.66-48.59 62.54-2.37 6.34-3.72 14.17-3.71 21.85-0.05 10.05 2.39 19.74 6.08 25.66 1.83 2.99 3.83 5.03 5.87 6.35 2.07 1.3 4.21 2.07 7.42 2.21l0.57 0.01c2.66-0.01 5.05-0.63 7.62-1.97 3.81-1.97 7.89-5.84 11.21-11 3.33-5.12 5.84-11.41 7.01-17.32 0.99-4.98 1.47-10.03 1.47-15.11 0.13-27.88-14.98-57.13-37.7-75.51-24.93-20.36-58.72-29.92-92.65-29.9-2.86 0-5.72 0.07-8.57 0.2-30.54 1.42-61.45 11.21-87.16 27.67-25.75 16.47-46.17 39.39-56.91 66.98-4.21 10.78-6.77 22.25-6.75 32.9 0 6.85 1.02 13.35 3.21 19.39 0.53 1.53 1.91 4.26 3.85 7.07 2.9 4.27 7.1 8.84 11.17 11.83 2.02 1.52 3.99 2.64 5.62 3.29 1.64 0.67 2.87 0.87 3.65 0.86l1.55-0.3c0.51-0.22 1.23-0.63 2.28-1.68 0.84-0.75 2.46-3.42 3.5-7.82 1.07-4.34 1.61-10.08 1.6-16.01 0.01-9.97-1.47-20.57-2.85-26.97-4.3-20.15-14.15-39.67-27.79-56.3-13.61-16.63-30.97-30.32-49.77-39.04-21.33-9.92-45.28-15.27-68.78-15.26-26.76 0-52.81 6.87-74.4 21.19-14.94 9.9-27.5 24.03-36.21 40.18-8.73 16.14-13.57 34.21-13.56 51.74 0 11.74 2.14 23.22 6.64 33.98 2.05 5.03 6.67 10.92 11.92 14.94 5.21 4.15 10.93 6.09 13.62 5.96 1.12-0.01 1.74-0.19 2.23-0.41 0.49-0.25 0.98-0.55 1.79-1.57 0.53-0.68 1.14-1.81 1.7-3.6 0.56-1.78 1.02-4.15 1.39-6.86 0.97-6.98 1.46-14.24 1.46-21.6 0.06-29.59-8.06-60.83-22.55-83.34-7.21-11.29-15.9-20.38-25.67-26.55-9.81-6.16-20.65-9.6-33.44-9.63h-0.11l-62.96-0.44h0.1-1490.4c-89.29-0.01-161.67-72.38-161.68-161.68v-1132.4c-0.03-30.19-12.23-55.47-31.21-73.68-18.99-18.17-44.79-28.86-71.37-28.84-17.8 0.02-35.98 4.71-53.23 15.27l-871.75 534.36-0.707 0.4c-0.519 0.28-9.355 5.03-23.187 9.82-13.84 4.76-32.684 9.63-53.528 9.65-13.183 0-27.226-1.99-40.984-7.5-20.684-8.19-40.211-24.72-53.777-51.31-13.649-26.59-21.946-62.86-22.93-112.49v0.03l-19.262-917.29 29.992-0.63" fill="#fbc5b2"/><path
            d="m270.03 617.98h796.26c81.93 0 140.35 79.45 115.91 157.64l-246.33 788.29h-535.41l-246.33-788.29c-24.434-78.191 33.984-157.64 115.9-157.64"
            fill="#65cbbb"/><path
            d="m1283.3 2532.7 8.08 12.63-362.36 231.82-4e-3 0.01c-40.543 25.9-86.883 38.97-133.3 38.97-59.234 0.01-118.72-21.31-166.38-64.18-26.856-24.06-47.641-54.65-61.008-96.16-13.433-41.54-19.93-93.88-19.945-163.49v-404.72l-408.57-1307.5c-4.27-13.661-6.297-27.43-6.293-40.903 7e-3 -36.41 14.726-70.41 39.113-95.34 24.351-24.949 58.691-40.898 97.398-40.879h796.26c38.71-0.019 73.06 15.93 97.41 40.879 24.38 24.93 39.1 58.93 39.11 95.34 0 13.473-2.02 27.242-6.29 40.903l0.01-0.02-409.26 1317.1c-1.95 6.28-7.758 10.55-14.325 10.55h-7e-3v-15h15v476.01c0.058 2.68 0.574 3.49 1.14 4.4 0.59 0.85 1.637 1.73 2.895 2.41l-0.059-0.03c1.434 0.78 2.856 1.19 3.957 1.17 0.973-0.04 1.938-0.11 4.031-1.4l0.016-0.01 362.38-231.82v-0.01c5.68-3.63 12.14-5.4 18.45-5.39 11.25-0.03 22.36 5.59 28.9 15.8l92.14 144.06c3.64 5.68 5.41 12.14 5.4 18.46 0.03 11.25-5.6 22.36-15.81 28.89l-8.08-12.63-8.08-12.64c1.3-0.83 1.95-2.17 1.98-3.62l-0.68-2.29-92.14-144.07c-0.83-1.29-2.16-1.94-3.63-1.97l-2.29 0.68-362.37 231.82 0.019-0.01c-6.539 4.24-13.792 6.2-20.234 6.16-7.617-0.02-13.805-2.41-18.23-4.8l-0.063-0.03c-4.144-2.27-9.012-5.8-12.992-11.41-4-5.56-6.703-13.25-6.648-21.72v-476.01c0-3.95 1.601-7.81 4.394-10.6 2.797-2.8 6.656-4.4 10.606-4.4h7e-3v15l-14.328-4.45 409.26-1317.1v-0.032c3.37-10.757 4.93-21.476 4.93-31.949 0.01-28.238-11.46-54.847-30.56-74.367-19.12-19.5-45.54-31.832-75.96-31.852h-796.26c-30.414 0.02-56.828 12.352-75.953 31.852-19.094 19.52-30.566 46.129-30.558 74.367 0 10.473 1.562 21.192 4.929 31.949l409.25 1309.7c0.461 1.47 0.684 2.93 0.684 4.47v407.01c-0.016 67.76 6.445 117.14 18.484 154.25 12.106 37.13 29.309 62.11 52.528 83.09 42.093 37.84 94.23 56.47 146.32 56.49 40.801-0.01 81.5-11.48 117.14-34.25h-7e-3l362.37-231.82 8.08 12.64"
            fill="#2b333b"/><path
            d="m499.76 1308.4c-54.246 0-98.211 43.97-98.211 98.21s43.965 98.2 98.211 98.2c54.238 0 98.207-43.96 98.207-98.2s-43.969-98.21-98.207-98.21"
            fill="#57c5a4"/><path
            d="m597.96 1084.2c-42.406 0-76.789 34.39-76.789 76.79 0 42.41 34.383 76.78 76.789 76.78s76.781-34.37 76.781-76.78c0-42.4-34.375-76.79-76.781-76.79"
            fill="#57c5a4"/><path
            d="m720.36 1303.9c-19.906 0-36.042 16.13-36.042 36.03s16.136 36.05 36.042 36.05c19.903 0 36.04-16.15 36.04-36.05s-16.137-36.03-36.04-36.03"
            fill="#57c5a4"/><path
            d="m379.73 1027.4c-15.656 0-28.351 12.7-28.351 28.36 0 15.65 12.695 28.35 28.351 28.35 15.664 0 28.364-12.7 28.364-28.35 0-15.66-12.7-28.36-28.364-28.36"
            fill="#57c5a4"/><path
            d="m499.76 869.94c-32.078 0-58.078 26-58.078 58.079 0 32.07 26 58.062 58.078 58.062 32.066 0 58.07-25.992 58.07-58.062 0-32.079-26.004-58.079-58.07-58.079"
            fill="#57c5a4"/><path
            d="m720.36 879.58c-26.746 0-48.433 21.688-48.433 48.438s21.687 48.429 48.433 48.429c26.747 0 48.43-21.679 48.43-48.429s-21.683-48.438-48.43-48.438"
            fill="#57c5a4"/><path
            d="m840.44 1067.4c-9.261 0-16.777 7.51-16.777 16.77 0 9.27 7.516 16.78 16.777 16.78 9.266 0 16.778-7.51 16.778-16.78 0-9.26-7.512-16.77-16.778-16.77"
            fill="#57c5a4"/><path
            d="m7044.2 1662.7v647.27h-136.34v-647.27c-121.32-30.43-211.16-140.17-211.16-270.92 0-154.27 125.06-279.34 279.33-279.34s279.34 125.07 279.34 279.34c0 130.75-89.85 240.49-211.17 270.92"
            fill="#f35c6f"/><path
            d="m7044.2 1662.7h15v1259.3c0 3.95-1.6 7.82-4.4 10.61-2.79 2.79-6.65 4.39-10.6 4.39h-136.34c-3.95 0-7.81-1.6-10.61-4.39-2.79-2.79-4.39-6.66-4.39-10.61v-1259.3h15l-3.65 14.55c-127.88-32.06-222.48-147.68-222.51-285.46 0.01-162.56 131.77-294.33 294.33-294.34 162.56 0.01 294.33 131.78 294.34 294.34-0.03 137.78-94.65 253.4-222.52 285.46l-3.65-14.55h15-15l-3.65-14.54c114.76-28.8 199.85-132.65 199.82-256.37-0.01-73.04-29.56-139.03-77.42-186.91-47.89-47.86-113.88-77.42-186.92-77.43-73.04 0.01-139.03 29.57-186.91 77.43-47.86 47.88-77.41 113.87-77.42 186.91-0.03 123.72 85.05 227.57 199.81 256.37 6.68 1.67 11.35 7.66 11.35 14.54v1244.3h106.34v-1244.3c0-6.88 4.67-12.87 11.35-14.54l3.65 14.54"
            fill="#2b333b"/><path
            d="m7059.5 2954.4h-165.71v84.66c0 13.85 11.23 25.08 25.08 25.08h115.55c13.85 0 25.08-11.23 25.08-25.08v-84.66"
            fill="#2b333b"/><path
            d="m6852.2 1344.4c-17.14 0-31.04 13.9-31.04 31.04 0 17.15 13.9 31.05 31.04 31.05 17.15 0 31.04-13.9 31.04-31.05 0-17.14-13.89-31.04-31.04-31.04"
            fill="#f794a2"/><path
            d="m6954.4 1309.5c-11.93 0-21.61 9.68-21.61 21.61 0 11.94 9.68 21.61 21.61 21.61 11.95 0 21.62-9.67 21.62-21.61 0-11.93-9.67-21.61-21.62-21.61"
            fill="#f794a2"/><path
            d="m6883.2 1246c-13.02 0-23.58 10.55-23.58 23.57 0 13.03 10.56 23.58 23.58 23.58s23.58-10.55 23.58-23.58c0-13.02-10.56-23.57-23.58-23.57"
            fill="#f794a2"/><path
            d="m6976.1 1215.3c-6.47 0-11.71 5.25-11.71 11.71 0 6.48 5.24 11.72 11.71 11.72s11.71-5.24 11.71-11.72c0-6.46-5.24-11.71-11.71-11.71"
            fill="#f794a2"/><path
            d="m6802.3 1294.5c-6.73 0-12.19 5.46-12.19 12.2s5.46 12.2 12.19 12.2c6.74 0 12.21-5.46 12.21-12.2s-5.47-12.2-12.21-12.2"
            fill="#f794a2"/><path
            d="m6947 1405.9c-6.42 0-11.64 5.2-11.64 11.64 0 6.42 5.22 11.63 11.64 11.63 6.43 0 11.64-5.21 11.64-11.63 0-6.44-5.21-11.64-11.64-11.64"
            fill="#f794a2"/><path
            d="m6907.9 2855.7h79.88c8.29 0 15 6.72 15 15 0 8.29-6.71 15-15 15h-79.88c-8.28 0-15-6.71-15-15 0-8.28 6.72-15 15-15"
            fill="#2b333b"/><path
            d="m6947.8 2024.3h39.94c5.53 0 10 4.47 10 10 0 5.52-4.47 10-10 10h-39.94c-5.52 0-10-4.48-10-10 0-5.53 4.48-10 10-10"
            fill="#2b333b"/><path
            d="m6947.8 1931.8h39.94c5.53 0 10 4.47 10 10 0 5.52-4.47 10-10 10h-39.94c-5.52 0-10-4.48-10-10 0-5.53 4.48-10 10-10"
            fill="#2b333b"/><path
            d="m6947.8 1839.3h39.94c5.53 0 10 4.47 10 10 0 5.52-4.47 10-10 10h-39.94c-5.52 0-10-4.48-10-10 0-5.53 4.48-10 10-10"
            fill="#2b333b"/><path
            d="m6947.8 1746.8h39.94c5.53 0 10 4.47 10 10 0 5.52-4.47 10-10 10h-39.94c-5.52 0-10-4.48-10-10 0-5.53 4.48-10 10-10"
            fill="#2b333b"/><path
            d="m6947.8 1654.2h39.94c5.53 0 10 4.47 10 10 0 5.52-4.47 10-10 10h-39.94c-5.52 0-10-4.48-10-10 0-5.53 4.48-10 10-10"
            fill="#2b333b"/><path
            d="m6947.8 1561.7h39.94c5.53 0 10 4.48 10 10s-4.47 10-10 10h-39.94c-5.52 0-10-4.48-10-10s4.48-10 10-10"
            fill="#2b333b"/><path
            d="m6947.8 1469.2h39.94c5.53 0 10 4.48 10 10s-4.47 10-10 10h-39.94c-5.52 0-10-4.48-10-10s4.48-10 10-10"
            fill="#2b333b"/><path
            d="m6947.8 1376.7h39.94c5.53 0 10 4.48 10 10s-4.47 10-10 10h-39.94c-5.52 0-10-4.48-10-10s4.48-10 10-10"
            fill="#2b333b"/><path
            d="m6696.7 1190.3h576.95c13.81 0 25 11.2 25 25 0 13.81-11.19 25-25 25h-576.95c-13.81 0-25-11.19-25-25 0-13.8 11.19-25 25-25"
            fill="#2b333b"/><path
            d="m7169.2 1216.7c-0.01-0.26-0.64-17.11-0.64-45.22 0.02-59.07 2.71-167.68 19.83-276.93 8.59-54.641 20.76-109.47 38.38-158.71 17.7-49.199 40.66-93.09 72.78-125.34 9.76-9.77 25.59-9.77 35.35 0 9.77 9.758 9.77 25.59 0 35.348-24.29 24.16-44.99 61.82-61.06 106.85-24.23 67.52-38.32 150.91-46.02 227.9-7.74 77.031-9.26 147.76-9.26 190.88 0 13.68 0.16 24.59 0.31 32.04 0.07 3.73 0.15 6.59 0.2 8.51 0.03 0.95 0.05 1.68 0.07 2.15l0.02 0.66c0.51 13.8-10.26 25.4-24.05 25.91-13.8 0.52-25.4-10.25-25.91-24.05"
            fill="#2b333b"/><path
            d="m6923.3 918.08 50 126.77 50-126.77c10.89-27.621-2.67-58.84-30.28-69.73-27.62-10.891-58.83 2.668-69.72 30.277-5.19 13.16-4.79 27.242 0 39.453"
            fill="#f3bb32"/><path
            d="m6943.3 902.39 30 76.789 30-76.789c6.47-16.559-1.71-35.243-18.28-41.719-16.56-6.473-35.25 1.707-41.72 18.289-3.06 7.82-2.82 16.18 0 23.43"
            fill="#f35c6f"/><path
            d="m7025.2 851.44h-103.84c-10.81 0-19.57-8.769-19.57-19.582v-31.418h142.98v31.418c0 10.813-8.76 19.582-19.57 19.582"
            fill="#2b333b"/><path
            d="m7087.8 805.7h-223.49c-10.82 0-19.58-8.769-19.58-19.578v-171.42h262.65v171.42c0 10.809-8.77 19.578-19.58 19.578"
            fill="#2b333b"/><path
            d="m6747.4 1097.5h457.95c8.28 0 15 6.72 15 15 0 8.29-6.72 15-15 15h-457.95c-8.28 0-15-6.71-15-15 0-8.28 6.72-15 15-15"
            fill="#2b333b"/><path
            d="m6947.8 2764.4h39.94c5.53 0 10 4.48 10 10s-4.47 10-10 10h-39.94c-5.52 0-10-4.48-10-10s4.48-10 10-10"
            fill="#2b333b"/><path
            d="m6947.8 2671.8h39.94c5.53 0 10 4.47 10 10 0 5.52-4.47 10-10 10h-39.94c-5.52 0-10-4.48-10-10 0-5.53 4.48-10 10-10"
            fill="#2b333b"/><path
            d="m6947.8 2579.3h39.94c5.53 0 10 4.47 10 10 0 5.52-4.47 10-10 10h-39.94c-5.52 0-10-4.48-10-10 0-5.53 4.48-10 10-10"
            fill="#2b333b"/><path
            d="m6947.8 2486.8h39.94c5.53 0 10 4.47 10 10 0 5.52-4.47 10-10 10h-39.94c-5.52 0-10-4.48-10-10 0-5.53 4.48-10 10-10"
            fill="#2b333b"/><path
            d="m6947.8 2394.3h39.94c5.53 0 10 4.47 10 10 0 5.52-4.47 10-10 10h-39.94c-5.52 0-10-4.48-10-10 0-5.53 4.48-10 10-10"
            fill="#2b333b"/><path
            d="m6947.8 2301.8h39.94c5.53 0 10 4.47 10 10 0 5.52-4.47 10-10 10h-39.94c-5.52 0-10-4.48-10-10 0-5.53 4.48-10 10-10"
            fill="#2b333b"/><path
            d="m6947.8 2209.3h39.94c5.53 0 10 4.47 10 10 0 5.52-4.47 10-10 10h-39.94c-5.52 0-10-4.48-10-10 0-5.53 4.48-10 10-10"
            fill="#2b333b"/><path
            d="m6947.8 2116.8h39.94c5.53 0 10 4.47 10 10 0 5.52-4.47 10-10 10h-39.94c-5.52 0-10-4.48-10-10 0-5.53 4.48-10 10-10"
            fill="#2b333b"/><path
            d="m6733 1214.8 0.02-0.67c0.11-3.32 0.57-18.77 0.57-42.74 0.02-57.49-2.72-164.12-19.22-269.17-8.23-52.5-19.92-104.59-36.05-149.58-16.07-45.031-36.77-82.683-61.06-106.84-9.76-9.758-9.76-25.59 0-35.348 9.77-9.77 25.6-9.77 35.36 0 32.11 32.25 55.07 76.129 72.77 125.32 26.4 73.828 40.68 160.33 48.7 239.74 7.97 79.38 9.5 151.58 9.5 195.88 0 28.13-0.62 45-0.63 45.26-0.51 13.8-12.11 24.57-25.91 24.05-13.8-0.51-24.57-12.11-24.05-25.9"
            fill="#2b333b"/><path d="m4927.6 608.43h277.65v1120.6h-277.65z" fill="#f3bb32"/><path
            d="m5205.3 608.43v15h-262.65v1447.9h275.34l-24.89-34.82c-1.82-2.56-2.8-5.59-2.8-8.73v-1419.4h15v15-15h15v1414.6l39.06 54.63c3.26 4.56 3.7 10.61 1.14 15.59s-7.74 8.14-13.34 8.14h-319.51c-3.95 0-7.82-1.6-10.61-4.4-2.79-2.79-4.39-6.65-4.39-10.6v-1477.9c0-3.95 1.6-7.821 4.39-10.61s6.66-4.39 10.61-4.39h277.65c3.95 0 7.82 1.601 10.61 4.39s4.39 6.66 4.39 10.61h-15"
            fill="#2b333b"/><path
            d="m5074.2 1084.4h66.5c8.29 0 15 6.71 15 15 0 8.28-6.71 15-15 15h-66.5c-8.29 0-15-6.72-15-15 0-8.29 6.71-15 15-15"
            fill="#2b333b"/><path
            d="m5074.2 1004.7h66.5c8.29 0 15 6.71 15 15 0 8.28-6.71 15-15 15h-66.5c-8.29 0-15-6.72-15-15 0-8.29 6.71-15 15-15"
            fill="#2b333b"/><path
            d="m5074.2 925h66.5c8.29 0 15 6.719 15 15s-6.71 15-15 15h-66.5c-8.29 0-15-6.719-15-15s6.71-15 15-15"
            fill="#2b333b"/><path
            d="m5074.2 845.33h66.5c8.29 0 15 6.719 15 15 0 8.289-6.71 15-15 15h-66.5c-8.29 0-15-6.711-15-15 0-8.281 6.71-15 15-15"
            fill="#2b333b"/><path
            d="m5074.2 765.65h66.5c8.29 0 15 6.723 15 15 0 8.293-6.71 15-15 15h-66.5c-8.29 0-15-6.707-15-15 0-8.277 6.71-15 15-15"
            fill="#2b333b"/><path
            d="m5074.2 685.98h66.5c8.29 0 15 6.711 15 15 0 8.282-6.71 15-15 15h-66.5c-8.29 0-15-6.718-15-15 0-8.289 6.71-15 15-15"
            fill="#2b333b"/><path
            d="m5074.2 1576.4h66.5c8.29 0 15 6.71 15 15 0 8.28-6.71 15-15 15h-66.5c-8.29 0-15-6.72-15-15 0-8.29 6.71-15 15-15"
            fill="#2b333b"/><path
            d="m5074.2 1496.8h66.5c8.29 0 15 6.71 15 15 0 8.28-6.71 15-15 15h-66.5c-8.29 0-15-6.72-15-15 0-8.29 6.71-15 15-15"
            fill="#2b333b"/><path
            d="m5074.2 1417.1h66.5c8.29 0 15 6.72 15 15s-6.71 15-15 15h-66.5c-8.29 0-15-6.72-15-15s6.71-15 15-15"
            fill="#2b333b"/><path
            d="m5074.2 1337.4h66.5c8.29 0 15 6.72 15 15 0 8.29-6.71 15-15 15h-66.5c-8.29 0-15-6.71-15-15 0-8.28 6.71-15 15-15"
            fill="#2b333b"/><path
            d="m5074.2 1257.7h66.5c8.29 0 15 6.72 15 15 0 8.29-6.71 15-15 15h-66.5c-8.29 0-15-6.71-15-15 0-8.28 6.71-15 15-15"
            fill="#2b333b"/><path
            d="m5074.2 1178.1h66.5c8.29 0 15 6.71 15 15 0 8.28-6.71 15-15 15h-66.5c-8.29 0-15-6.72-15-15 0-8.29 6.71-15 15-15"
            fill="#2b333b"/><path
            d="m5074.2 1829.5h66.5c8.29 0 15 6.72 15 15 0 8.29-6.71 15-15 15h-66.5c-8.29 0-15-6.71-15-15 0-8.28 6.71-15 15-15"
            fill="#2b333b"/><path
            d="m5074.2 1749.8h66.5c8.29 0 15 6.72 15 15 0 8.29-6.71 15-15 15h-66.5c-8.29 0-15-6.71-15-15 0-8.28 6.71-15 15-15"
            fill="#2b333b"/><path
            d="m5074.2 1670.1h66.5c8.29 0 15 6.71 15 15 0 8.28-6.71 15-15 15h-66.5c-8.29 0-15-6.72-15-15 0-8.29 6.71-15 15-15"
            fill="#2b333b"/><path
            d="m5828.8 1268.1c0 39.18-31.76 70.94-70.94 70.94s-70.95-31.76-70.95-70.94 31.77-70.94 70.95-70.94 70.94 31.76 70.94 70.94"
            fill="#ade3dc"/><path
            d="m5631.5 1150.6c0 33.05-26.79 59.85-59.86 59.85-33.06 0-59.85-26.8-59.85-59.85 0-33.07 26.79-59.87 59.85-59.87 33.07 0 59.86 26.8 59.86 59.87"
            fill="#ade3dc"/><path
            d="m5731.2 1061.9c0 15.92-12.91 28.82-28.83 28.82s-28.82-12.9-28.82-28.82c0-15.91 12.9-28.81 28.82-28.81s28.83 12.9 28.83 28.81"
            fill="#ade3dc"/><path
            d="m5713.5 1392.2c0 14.69-11.91 26.6-26.61 26.6-14.68 0-26.6-11.91-26.6-26.6s11.92-26.61 26.6-26.61c14.7 0 26.61 11.92 26.61 26.61"
            fill="#ade3dc"/><path
            d="m5584.9 1290.3c0 12.24-9.93 22.17-22.18 22.17-12.23 0-22.16-9.93-22.16-22.17s9.93-22.17 22.16-22.17c12.25 0 22.18 9.93 22.18 22.17"
            fill="#ade3dc"/><path
            d="m5621.2 1466c0 10.23-8.3 18.53-18.53 18.53-10.25 0-18.54-8.3-18.54-18.53 0-10.24 8.29-18.54 18.54-18.54 10.23 0 18.53 8.3 18.53 18.54"
            fill="#ade3dc"/><path
            d="m4675.8 1252.3c44.78 22.81 86.87 50.88 125.15 83.46 15.94 13.58 32.08 29.21 44.8 47.47 12.67 18.2 22 39.41 22.86 63.28 0.04 0.91 0.06 1.84 0.06 2.81-0.04 5.92-0.64 13.33-4.83 20.87l0.01-0.02c-3.42 6.18-8.79 10.87-14.5 13.58-5.72 2.75-11.7 3.78-17.45 3.79-11.02-0.09-21.54-3.6-30.4-10.03-9.7-7.18-16.9-16.68-21.63-27.08-4.74-10.41-7.09-21.76-7.09-33.13 0-9.15 1.52-18.34 4.71-27.08 5.45-14.9 14.92-27.54 26.48-37.43 11.58-9.9 25.28-17.14 39.79-21.3 9.25-2.65 18.67-3.89 27.98-3.89 30.95 0.06 60.48 13.38 82.67 34.15 22.13 20.76 37.34 49.62 37.38 81.59l-0.01 1.73c-0.09 4.9-0.52 10.28-1.97 15.93-1.45 5.61-4.02 11.61-8.57 16.91-3.8 4.44-8.57 7.7-13.54 9.72-4.98 2.04-10.15 2.9-15.18 2.9-6.95-0.01-13.7-1.61-19.9-4.54-6.19-2.94-11.9-7.25-16.37-13.07-8.32-10.92-11.23-23.83-11.22-35.82 0-8.12 1.29-16.01 3.39-23.38 6.73-23.52 21.76-43.3 40.79-57.27 19.06-13.97 42.32-22.33 66.4-22.36 5.12 0 10.28 0.39 15.42 1.19 26.24 4.12 49.29 18.45 65.91 37.96 16.59 19.52 27.04 44.54 27.07 71 0 1.03-0.01 2.04-0.04 3.06v0.02c-0.16 4.64-0.64 9.81-2.19 15.25-1.54 5.41-4.27 11.27-9.09 16.26-3.58 3.72-7.88 6.4-12.3 8.07-4.43 1.67-8.98 2.4-13.42 2.4-9.29-0.05-18.27-3.02-25.78-8.88-6.74-5.32-11.42-12.08-14.58-18.99-3.18-6.93-4.94-14.09-5.85-20.98-0.51-3.95-0.76-7.89-0.76-11.79 0.02-22.53 8.17-43.9 21.21-61.48 13.08-17.57 31.16-31.57 52.11-39.14 13.49-4.86 27.55-7.1 41.52-7.1 32.43 0.05 64.38 11.84 89.78 31.63 9.86 7.7 19.11 16.93 26.53 27.75 7.39 10.8 12.95 23.31 14.82 37.2 0.39 2.92 0.58 5.85 0.58 8.76-0.03 13.07-3.69 25.94-10.66 36.97-6.93 10.97-17.55 20.27-31.28 24.31h0.02c-4.2 1.24-8.69 1.99-13.42 2-4.69 0-9.65-0.77-14.52-2.7-5.07-2.01-9.45-5.08-12.94-8.6-5.25-5.3-8.62-11.48-10.94-17.62-2.3-6.17-3.56-12.39-4.19-18.31-0.4-3.74-0.59-7.49-0.59-11.21 0.05-31.73 13.79-61.59 35.02-83.96 21.24-22.33 50.47-37.59 82.61-38.51 0.96-0.03 1.92-0.04 2.87-0.04 32.54 0.05 62.65 14.77 84.74 36.95 22.06 22.22 36.61 52.39 36.66 84.82 0 1.79-0.04 3.59-0.13 5.4-0.71 12.52-4.61 25.21-11.83 36.07-3.64 5.4-8.2 10.37-14.04 14.19-5.79 3.81-13.04 6.35-20.8 6.32-1.91 0-3.86-0.15-5.8-0.45-7.14-1.06-13.67-4.2-18.7-8.46-7.6-6.44-12.01-14.79-14.75-23.16-2.72-8.44-3.8-17.17-3.82-25.56 0-2.79 0.13-5.54 0.37-8.24 0.97-10.65 2.89-21.73 6.56-32.53 3.67-10.79 9.15-21.38 17.33-30.54 10.22-11.45 23.05-18.94 36.46-23.36 13.44-4.44 27.53-6.01 41.43-6.02 13.95 0 27.75 1.61 40.61 3.84 22.11 3.89 44.09 8.51 63.72 8.47 13.56-0.01 25.77-2.09 36.84-7.47 10.68-5.18 19.8-13.45 27.17-23.85 7.36-10.37 12.87-22.81 16.18-35.56 4.3-16.5 5.3-32.99 5.29-51.28v-342.65h30v342.65c0 19.3-1 38.66-6.25 58.84-4.15 15.91-10.98 31.56-20.74 45.35-9.76 13.77-22.57 25.73-38.53 33.49-16.26 7.9-33.38 10.49-49.96 10.48-24.09-0.04-47.54-5.24-68.86-8.92-11.65-2.02-23.84-3.4-35.47-3.39-11.59-0.01-22.59 1.37-32 4.5-9.44 3.15-17.22 7.85-23.52 14.88-4.93 5.51-8.63 12.34-11.3 20.2-2.68 7.84-4.27 16.65-5.08 25.59-0.16 1.77-0.25 3.63-0.25 5.52-0.04 7.58 1.53 15.58 4.05 20.53 1.24 2.51 2.61 4.21 3.82 5.21 1.24 1.01 2.23 1.5 3.96 1.79l1.24 0.1c1.48-0.02 2.68-0.35 4.41-1.44 2.53-1.59 5.78-5.36 8.14-10.4 2.39-5 3.91-11.1 4.15-16.27 0.07-1.28 0.1-2.57 0.1-3.87 0.05-23.17-10.73-46.39-27.93-63.66-17.18-17.3-40.27-28.16-63.47-28.11l-2.06 0.03c-22.86 0.58-45.16 11.79-61.68 29.19-16.54 17.36-26.81 40.49-26.76 63.29 0 2.69 0.14 5.37 0.42 8.06 0.52 5.11 1.89 10.32 3.74 13.86 0.92 1.78 1.91 3.14 2.84 4.07 0.94 0.93 1.76 1.47 2.75 1.87 0.84 0.34 1.98 0.58 3.43 0.58s3.18-0.25 4.91-0.77l0.02-0.01c5.64-1.65 10.61-5.63 14.42-11.6 3.78-5.91 6.02-13.63 5.99-20.9 0-1.62-0.11-3.22-0.31-4.78-1.13-8.37-4.56-16.5-9.85-24.24-5.27-7.72-12.38-14.92-20.23-21.04-20.24-15.85-46.32-25.32-71.32-25.28-10.78 0-21.36 1.72-31.35 5.32-14.91 5.35-28.54 15.78-38.2 28.81-9.69 13.04-15.31 28.46-15.29 43.59 0 2.63 0.17 5.26 0.51 7.89 0.58 4.5 1.74 8.85 3.36 12.37 1.63 3.54 3.62 6.15 5.91 7.95 1.69 1.41 4.77 2.48 7.19 2.43 1.15 0 2.12-0.2 2.78-0.45l1.35-0.85c0.56-0.58 1.25-1.63 1.84-3.68 0.59-2.01 0.95-4.84 1.04-7.95v0.02l0.03-2.15c0.04-18.36-7.46-36.95-19.92-51.56-12.43-14.64-29.52-24.96-47.68-27.76-3.57-0.56-7.18-0.83-10.8-0.83-16.98-0.03-34.42 6.08-48.65 16.54-14.25 10.45-25.07 25.04-29.69 41.32-1.43 5-2.25 10.28-2.24 15.15 0 7.32 1.76 13.31 5.06 17.6 1.17 1.55 3.08 3.1 5.37 4.18 2.28 1.09 4.89 1.67 7.06 1.66 1.57 0 2.88-0.28 3.82-0.67 0.96-0.41 1.56-0.84 2.15-1.51 0.84-0.97 1.66-2.48 2.28-4.88 0.62-2.38 0.96-5.51 1.01-8.89l0.01-1.25c0.04-22.12-10.77-43.63-27.91-59.72-17.08-16.08-40.08-26.09-62.14-26.02-6.66 0-13.26 0.88-19.72 2.73-10.42 2.97-20.42 8.29-28.54 15.25-8.14 6.97-14.36 15.49-17.81 24.94-1.91 5.23-2.9 10.98-2.89 16.78-0.01 7.2 1.52 14.43 4.39 20.69 2.86 6.28 6.98 11.56 12.16 15.39 3.15 2.43 8.63 4.24 12.57 4.16 2.06 0 3.61-0.41 4.41-0.81l1.38-1.24 0.01-0.02c0.39-0.58 1-2.68 0.97-6.15l-0.04-1.73c-0.6-16.55-7.06-32.17-17.52-47.24-10.42-15.02-24.74-29.12-39.6-41.75-36.49-31.05-76.64-57.83-119.32-79.57l13.61-26.73"
            fill="#fbc5b2"/><path
            d="m5814.6 1911.6 78.85 344.99 356.68-94.66c8-2.13 16.22 2.64 18.34 10.65 2.13 8-2.64 16.22-10.65 18.34l-371.69 98.65c-3.93 1.04-8.12 0.44-11.6-1.66s-5.96-5.54-6.87-9.5l-82.3-360.13c-1.85-8.07 3.2-16.12 11.28-17.96 8.07-1.85 16.12 3.2 17.96 11.28"
            fill="#2b333b"/><path
            d="m6035.2 2275.1c0 84.48-68.48 152.97-152.96 152.97-84.49 0-152.97-68.49-152.97-152.97 0-84.49 68.48-152.97 152.97-152.97 84.48 0 152.96 68.48 152.96 152.97"
            fill="#f35c6f"/><path
            d="m6035.2 2275.1h15c-0.01 92.77-75.19 167.96-167.96 167.97-92.78-0.01-167.96-75.2-167.97-167.97 0.01-92.78 75.19-167.96 167.97-167.97 92.77 0.01 167.95 75.19 167.96 167.97h-30c0-38.15-15.42-72.55-40.41-97.56-25.01-24.99-59.41-40.4-97.55-40.41-38.15 0.01-72.55 15.42-97.56 40.41-24.99 25.01-40.41 59.41-40.41 97.56 0 38.14 15.42 72.54 40.41 97.56 25.01 24.99 59.41 40.4 97.56 40.41 38.14-0.01 72.54-15.42 97.55-40.41 24.99-25.02 40.41-59.42 40.41-97.56h15"
            fill="#2b333b"/><path
            d="m5913 1915c0 62.45-50.63 113.08-113.07 113.08-62.45 0-113.08-50.63-113.08-113.08s50.63-113.07 113.08-113.07c62.44 0 113.07 50.62 113.07 113.07"
            fill="#f3bb32"/><path
            d="m5913 1915h15c-0.01 70.74-57.34 128.07-128.07 128.08-70.74-0.01-128.07-57.34-128.08-128.08 0.01-70.74 57.34-128.06 128.08-128.07 70.73 0.01 128.06 57.33 128.07 128.07h-30c-0.01-27.13-10.96-51.55-28.73-69.35-17.79-17.76-42.21-28.71-69.34-28.72-27.13 0.01-51.56 10.96-69.35 28.73-17.77 17.79-28.72 42.21-28.73 69.34 0.01 27.13 10.96 51.56 28.73 69.35 17.8 17.77 42.22 28.72 69.35 28.73 27.13-0.01 51.55-10.96 69.34-28.73 17.77-17.79 28.72-42.22 28.73-69.35h15"
            fill="#2b333b"/><path
            d="m6367 2176.5c0 62.45-50.62 113.07-113.08 113.07-62.45 0-113.07-50.62-113.07-113.07s50.62-113.07 113.07-113.07c62.46 0 113.08 50.62 113.08 113.07"
            fill="#f3bb32"/><path
            d="m6367 2176.5h15c-0.01 70.74-57.33 128.06-128.08 128.07-70.74-0.01-128.06-57.33-128.07-128.07 0.01-70.74 57.33-128.06 128.07-128.07 70.75 0.01 128.07 57.33 128.08 128.07h-30c-0.01-27.13-10.95-51.55-28.72-69.35-17.8-17.77-42.22-28.71-69.36-28.72-27.13 0.01-51.55 10.95-69.35 28.72-17.77 17.8-28.71 42.22-28.72 69.35 0.01 27.13 10.95 51.55 28.72 69.35 17.8 17.77 42.22 28.71 69.35 28.72 27.14-0.01 51.56-10.95 69.36-28.72 17.77-17.8 28.71-42.22 28.72-69.35h15"
            fill="#2b333b"/><path
            d="m2831.6 846.05c-48.4 0-87.63-39.219-87.63-87.621v-21.782c0-48.398 39.23-87.628 87.63-87.628h185.06v197.03h-185.06"
            fill="#e94959"/><path
            d="m3289.3 736.65v21.782c0 48.402-39.23 87.621-87.62 87.621h-185.06v-197.03h185.06c48.39 0 87.62 39.23 87.62 87.628"
            fill="#ade3dc"/><path
            d="m3201.7 649.02v15h-370.11c-20.11 0.011-38.17 8.109-51.36 21.269-13.16 13.191-21.26 31.25-21.27 51.359v21.782c0.01 20.101 8.11 38.16 21.27 51.351 13.19 13.168 31.25 21.27 51.36 21.27h370.11c20.11 0 38.17-8.102 51.36-21.27 13.16-13.191 21.26-31.25 21.27-51.351v-21.782c-0.01-20.097-8.11-38.168-21.27-51.359-13.19-13.16-31.25-21.258-51.36-21.269v-30c56.69 0.011 102.62 45.941 102.63 102.63v21.782c-0.01 56.691-45.94 102.62-102.63 102.62h-370.11c-56.69 0-102.62-45.93-102.63-102.62v-21.782c0.01-56.687 45.94-102.62 102.63-102.63h370.11v15"
            fill="#2b333b"/><path
            d="m2695.2 1043.1c-48.39 0-87.62-39.23-87.62-87.629v-21.781c0-48.399 39.23-87.629 87.62-87.629h185.06v197.04h-185.06"
            fill="#65cbbb"/><path
            d="m3153 933.68v21.781c0 48.399-39.23 87.629-87.62 87.629h-185.07v-197.04h185.07c48.39 0 87.62 39.23 87.62 87.629"
            fill="#fbc5b2"/><path
            d="m3065.4 846.05v15h-370.13c-20.1 8e-3 -38.16 8.109-51.35 21.281-13.16 13.18-21.26 31.25-21.27 51.348v21.781c0.01 20.098 8.11 38.168 21.27 51.359 13.19 13.16 31.25 21.26 51.35 21.27h370.13c20.1-0.01 38.16-8.11 51.35-21.27 13.16-13.191 21.26-31.261 21.27-51.359v-21.781c-0.01-20.098-8.11-38.168-21.27-51.348-13.19-13.172-31.25-21.273-51.35-21.281v-30c56.68 8e-3 102.61 45.941 102.62 102.63v21.781c-0.01 56.689-45.94 102.62-102.62 102.63h-370.13c-56.68-0.01-102.61-45.94-102.62-102.63v-21.781c0.01-56.688 45.94-102.62 102.62-102.63h370.13v15"
            fill="#2b333b"/><path
            d="m259.29 1117.3c-13.426-13.41-13.426-35.17 0-48.59l221.03-221.03c13.426-13.422 35.176-13.422 48.602 0 13.418 13.41 13.418 35.168 0 48.59l-221.04 221.03c-13.418 13.42-35.176 13.42-48.594 0"
            fill="#2b333b"/><path
            d="m924.28 934.37h-630.97s-23.278-186.81 172.92-352.09h285.13c196.2 165.28 172.92 352.09 172.92 352.09"
            fill="#fbc5b2"/><path
            d="m924.28 934.37v20h-630.97c-10.083 0-18.602-7.531-19.848-17.531-0.09-0.731-1.012-8.41-1.012-21.61 4e-3 -27.808 4.078-80.179 28.813-143.1 24.703-62.899 70.23-136.24 152.09-205.15 3.597-3.031 8.175-4.699 12.882-4.699h285.13c4.707 0 9.285 1.668 12.883 4.699 81.852 68.911 127.38 142.24 152.08 205.15 24.735 62.922 28.809 115.29 28.809 143.09 0 13.203-0.918 20.89-1.008 21.621-1.246 10-9.77 17.531-19.848 17.531v-20l-19.843-2.48 8.246 1.031-8.254-0.973 8e-3 -0.058 8.246 1.031-8.254-0.973c0.011-0.109 0.711-6.097 0.711-16.73 0-23.918-3.532-71.231-26.039-128.46-22.543-57.242-63.907-124.52-140.62-189.19l12.886-15.289v20h-285.13v-20l12.887 15.289c-76.723 64.672-118.09 131.96-140.63 189.2-22.512 57.23-26.039 104.54-26.039 128.46 0 5.668 0.199 10.008 0.387 12.852 0.094 1.418 0.183 2.469 0.246 3.109l0.066 0.661 0.012 0.097-8.234 0.973 8.226-1.031 8e-3 0.058-8.234 0.973 8.226-1.031-19.843 2.48v-20h630.97v20l-19.843-2.48 19.843 2.48"
            fill="#2b333b"/><path
            d="m298.28 834.7h430.66c11.043 0 20 8.949 20 20 0 11.043-8.957 20-20 20h-430.66c-11.047 0-20-8.957-20-20 0-11.051 8.953-20 20-20"
            fill="#2b333b"/><path
            d="m806.53 834.7h32.153c11.043 0 20 8.949 20 20 0 11.043-8.957 20-20 20h-32.153c-11.043 0-20-8.957-20-20 0-11.051 8.957-20 20-20"
            fill="#2b333b"/><path
            d="m755.75 3427.1-182.35-105.28v-210.56l182.35-105.27 182.35 105.27v210.56zm0-27.57 158.46-91.49v-182.99l-158.46-91.49-158.47 91.49v182.99l158.47 91.49"
            fill="#2b333b"/><path
            d="m958.69 3762.4-182.35-105.28v-210.55l182.35-105.28 182.35 105.28v210.55zm0-27.57 158.47-91.49v-182.98l-158.47-91.5-158.46 91.5v182.98l158.46 91.49"
            fill="#2b333b"/><path
            d="m1210.2 773.65h-4.37c-44.71 0-80.95 36.25-80.95 80.961v493.29h166.27v-493.29c0-44.711-36.24-80.961-80.95-80.961"
            fill="#e94959"/><path
            d="m1210.2 773.65v15h-4.37c-18.26 0.012-34.65 7.364-46.63 19.321-11.96 11.992-19.31 28.383-19.32 46.64v770.93h136.27v-770.93c-0.01-18.257-7.36-34.648-19.31-46.64-11.99-11.957-28.38-19.309-46.64-19.321v-30c53 0.012 95.94 42.961 95.95 95.961v785.93c0 3.95-1.6 7.81-4.39 10.6-2.79 2.8-6.66 4.4-10.61 4.4h-166.27c-3.95 0-7.81-1.6-10.6-4.4-2.8-2.79-4.4-6.65-4.4-10.6v-785.93c0.01-53 42.95-95.949 95.95-95.961h4.37v15"
            fill="#2b333b"/><path
            d="m1162.6 1514.2h31.04c5.52 0 10 4.48 10 10s-4.48 10-10 10h-31.04c-5.52 0-10-4.48-10-10s4.48-10 10-10"
            fill="#2b333b"/><path
            d="m1162.6 1445.4h31.04c5.52 0 10 4.48 10 10s-4.48 10-10 10h-31.04c-5.52 0-10-4.48-10-10s4.48-10 10-10"
            fill="#2b333b"/><path
            d="m1162.6 1376.7h31.04c5.52 0 10 4.48 10 10s-4.48 10-10 10h-31.04c-5.52 0-10-4.48-10-10s4.48-10 10-10"
            fill="#2b333b"/><path
            d="m1162.6 1308h31.04c5.52 0 10 4.47 10 10 0 5.52-4.48 10-10 10h-31.04c-5.52 0-10-4.48-10-10 0-5.53 4.48-10 10-10"
            fill="#2b333b"/><path
            d="m1162.6 1239.3h31.04c5.52 0 10 4.47 10 10 0 5.52-4.48 10-10 10h-31.04c-5.52 0-10-4.48-10-10 0-5.53 4.48-10 10-10"
            fill="#2b333b"/><path
            d="m1162.6 1170.6h31.04c5.52 0 10 4.48 10 10 0 5.53-4.48 10-10 10h-31.04c-5.52 0-10-4.47-10-10 0-5.52 4.48-10 10-10"
            fill="#2b333b"/><path
            d="m1162.6 1101.9h31.04c5.52 0 10 4.48 10 10 0 5.53-4.48 10-10 10h-31.04c-5.52 0-10-4.47-10-10 0-5.52 4.48-10 10-10"
            fill="#2b333b"/><path
            d="m1162.6 1033.2h31.04c5.52 0 10 4.48 10 10 0 5.53-4.48 10-10 10h-31.04c-5.52 0-10-4.47-10-10 0-5.52 4.48-10 10-10"
            fill="#2b333b"/><path
            d="m1162.6 964.52h31.04c5.52 0 10 4.48 10 10 0 5.519-4.48 10-10 10h-31.04c-5.52 0-10-4.481-10-10 0-5.52 4.48-10 10-10"
            fill="#2b333b"/><path
            d="m1162.6 895.81h31.04c5.52 0 10 4.48 10 10 0 5.523-4.48 10-10 10h-31.04c-5.52 0-10-4.477-10-10 0-5.52 4.48-10 10-10"
            fill="#2b333b"/><path
            d="m1551.6 773.65h-4.37c-44.71 0-80.95 36.25-80.95 80.961v493.29h166.27v-493.29c0-44.711-36.24-80.961-80.95-80.961"
            fill="#f3bb32"/><path
            d="m1551.6 773.65v15h-4.37c-18.26 0.012-34.65 7.364-46.63 19.321-11.96 11.992-19.31 28.383-19.32 46.64v770.93h136.27v-770.93c0-18.257-7.36-34.648-19.31-46.64-11.99-11.957-28.38-19.309-46.64-19.321v-30c53 0.012 95.94 42.961 95.95 95.961v785.93c0 3.95-1.6 7.81-4.39 10.6-2.79 2.8-6.66 4.4-10.61 4.4h-166.27c-3.95 0-7.81-1.6-10.61-4.4-2.79-2.79-4.39-6.65-4.39-10.6v-785.93c0.01-53 42.95-95.949 95.95-95.961h4.37v15"
            fill="#2b333b"/><path
            d="m1504 1514.2h31.03c5.53 0 10 4.48 10 10s-4.47 10-10 10h-31.03c-5.52 0-10-4.48-10-10s4.48-10 10-10"
            fill="#2b333b"/><path
            d="m1504 1445.4h31.03c5.53 0 10 4.48 10 10s-4.47 10-10 10h-31.03c-5.52 0-10-4.48-10-10s4.48-10 10-10"
            fill="#2b333b"/><path
            d="m1504 1376.7h31.03c5.53 0 10 4.48 10 10s-4.47 10-10 10h-31.03c-5.52 0-10-4.48-10-10s4.48-10 10-10"
            fill="#2b333b"/><path
            d="m1504 1308h31.03c5.53 0 10 4.47 10 10 0 5.52-4.47 10-10 10h-31.03c-5.52 0-10-4.48-10-10 0-5.53 4.48-10 10-10"
            fill="#2b333b"/><path
            d="m1504 1239.3h31.03c5.53 0 10 4.47 10 10 0 5.52-4.47 10-10 10h-31.03c-5.52 0-10-4.48-10-10 0-5.53 4.48-10 10-10"
            fill="#2b333b"/><path
            d="m1504 1170.6h31.03c5.53 0 10 4.48 10 10 0 5.53-4.47 10-10 10h-31.03c-5.52 0-10-4.47-10-10 0-5.52 4.48-10 10-10"
            fill="#2b333b"/><path
            d="m1504 1101.9h31.03c5.53 0 10 4.48 10 10 0 5.53-4.47 10-10 10h-31.03c-5.52 0-10-4.47-10-10 0-5.52 4.48-10 10-10"
            fill="#2b333b"/><path
            d="m1504 1033.2h31.03c5.53 0 10 4.48 10 10 0 5.53-4.47 10-10 10h-31.03c-5.52 0-10-4.47-10-10 0-5.52 4.48-10 10-10"
            fill="#2b333b"/><path
            d="m1504 964.52h31.03c5.53 0 10 4.48 10 10 0 5.519-4.47 10-10 10h-31.03c-5.52 0-10-4.481-10-10 0-5.52 4.48-10 10-10"
            fill="#2b333b"/><path
            d="m1504 895.81h31.03c5.53 0 10 4.48 10 10 0 5.523-4.47 10-10 10h-31.03c-5.52 0-10-4.477-10-10 0-5.52 4.48-10 10-10"
            fill="#2b333b"/><path
            d="m1893 773.65h-4.37c-44.71 0-80.95 36.25-80.95 80.961v493.29h166.27v-493.29c0-44.711-36.24-80.961-80.95-80.961"
            fill="#65cbbb"/><path
            d="m1893 773.65v15h-4.37c-18.26 0.012-34.65 7.364-46.63 19.321-11.96 11.992-19.31 28.383-19.32 46.64v770.93h136.27v-770.93c-0.01-18.257-7.36-34.648-19.32-46.64-11.98-11.957-28.37-19.309-46.63-19.321v-30c53 0.012 95.94 42.961 95.95 95.961v785.93c0 3.95-1.6 7.81-4.39 10.6-2.8 2.8-6.66 4.4-10.61 4.4h-166.27c-3.95 0-7.81-1.6-10.61-4.4-2.79-2.79-4.39-6.65-4.39-10.6v-785.93c0.01-53 42.95-95.949 95.95-95.961h4.37v15"
            fill="#2b333b"/><path
            d="m1845.4 1514.2h31.04c5.52 0 10 4.48 10 10s-4.48 10-10 10h-31.04c-5.53 0-10-4.48-10-10s4.47-10 10-10"
            fill="#2b333b"/><path
            d="m1845.4 1445.4h31.04c5.52 0 10 4.48 10 10s-4.48 10-10 10h-31.04c-5.53 0-10-4.48-10-10s4.47-10 10-10"
            fill="#2b333b"/><path
            d="m1845.4 1376.7h31.04c5.52 0 10 4.48 10 10s-4.48 10-10 10h-31.04c-5.53 0-10-4.48-10-10s4.47-10 10-10"
            fill="#2b333b"/><path
            d="m1845.4 1308h31.04c5.52 0 10 4.47 10 10 0 5.52-4.48 10-10 10h-31.04c-5.53 0-10-4.48-10-10 0-5.53 4.47-10 10-10"
            fill="#2b333b"/><path
            d="m1845.4 1239.3h31.04c5.52 0 10 4.47 10 10 0 5.52-4.48 10-10 10h-31.04c-5.53 0-10-4.48-10-10 0-5.53 4.47-10 10-10"
            fill="#2b333b"/><path
            d="m1845.4 1170.6h31.04c5.52 0 10 4.48 10 10 0 5.53-4.48 10-10 10h-31.04c-5.53 0-10-4.47-10-10 0-5.52 4.47-10 10-10"
            fill="#2b333b"/><path
            d="m1845.4 1101.9h31.04c5.52 0 10 4.48 10 10 0 5.53-4.48 10-10 10h-31.04c-5.53 0-10-4.47-10-10 0-5.52 4.47-10 10-10"
            fill="#2b333b"/><path
            d="m1845.4 1033.2h31.04c5.52 0 10 4.48 10 10 0 5.53-4.48 10-10 10h-31.04c-5.53 0-10-4.47-10-10 0-5.52 4.47-10 10-10"
            fill="#2b333b"/><path
            d="m1845.4 964.52h31.04c5.52 0 10 4.48 10 10 0 5.519-4.48 10-10 10h-31.04c-5.53 0-10-4.481-10-10 0-5.52 4.47-10 10-10"
            fill="#2b333b"/><path
            d="m1845.4 895.81h31.04c5.52 0 10 4.48 10 10 0 5.523-4.48 10-10 10h-31.04c-5.53 0-10-4.477-10-10 0-5.52 4.47-10 10-10"
            fill="#2b333b"/><path
            d="m2234.4 773.65h-4.37c-44.71 0-80.95 36.25-80.95 80.961v493.29h166.27v-493.29c0-44.711-36.24-80.961-80.95-80.961"
            fill="#fbc5b2"/><path
            d="m2234.4 773.65v15h-4.37c-18.26 0.012-34.65 7.364-46.64 19.321-11.95 11.992-19.31 28.383-19.31 46.64v770.93h136.27v-770.93c-0.01-18.257-7.36-34.648-19.32-46.64-11.98-11.957-28.37-19.309-46.63-19.321v-30c53 0.012 95.94 42.961 95.95 95.961v785.93c0 3.95-1.6 7.81-4.39 10.6-2.8 2.8-6.66 4.4-10.61 4.4h-166.27c-3.95 0-7.82-1.6-10.61-4.4-2.79-2.79-4.39-6.65-4.39-10.6v-785.93c0.01-53 42.95-95.949 95.95-95.961h4.37v15"
            fill="#2b333b"/><path
            d="m2186.8 1514.2h31.03c5.52 0 10 4.48 10 10s-4.48 10-10 10h-31.03c-5.53 0-10-4.48-10-10s4.47-10 10-10"
            fill="#2b333b"/><path
            d="m2186.8 1445.4h31.03c5.52 0 10 4.48 10 10s-4.48 10-10 10h-31.03c-5.53 0-10-4.48-10-10s4.47-10 10-10"
            fill="#2b333b"/><path
            d="m2186.8 1376.7h31.03c5.52 0 10 4.48 10 10s-4.48 10-10 10h-31.03c-5.53 0-10-4.48-10-10s4.47-10 10-10"
            fill="#2b333b"/><path
            d="m2186.8 1308h31.03c5.52 0 10 4.47 10 10 0 5.52-4.48 10-10 10h-31.03c-5.53 0-10-4.48-10-10 0-5.53 4.47-10 10-10"
            fill="#2b333b"/><path
            d="m2186.8 1239.3h31.03c5.52 0 10 4.47 10 10 0 5.52-4.48 10-10 10h-31.03c-5.53 0-10-4.48-10-10 0-5.53 4.47-10 10-10"
            fill="#2b333b"/><path
            d="m2186.8 1170.6h31.03c5.52 0 10 4.48 10 10 0 5.53-4.48 10-10 10h-31.03c-5.53 0-10-4.47-10-10 0-5.52 4.47-10 10-10"
            fill="#2b333b"/><path
            d="m2186.8 1101.9h31.03c5.52 0 10 4.48 10 10 0 5.53-4.48 10-10 10h-31.03c-5.53 0-10-4.47-10-10 0-5.52 4.47-10 10-10"
            fill="#2b333b"/><path
            d="m2186.8 1033.2h31.03c5.52 0 10 4.48 10 10 0 5.53-4.48 10-10 10h-31.03c-5.53 0-10-4.47-10-10 0-5.52 4.47-10 10-10"
            fill="#2b333b"/><path
            d="m2186.8 964.52h31.03c5.52 0 10 4.48 10 10 0 5.519-4.48 10-10 10h-31.03c-5.53 0-10-4.481-10-10 0-5.52 4.47-10 10-10"
            fill="#2b333b"/><path
            d="m2186.8 895.81h31.03c5.52 0 10 4.48 10 10 0 5.523-4.48 10-10 10h-31.03c-5.53 0-10-4.477-10-10 0-5.52 4.47-10 10-10"
            fill="#2b333b"/><path
            d="m991.88 1155.6h1466.5c13.81 0 25 11.2 25 25 0 13.81-11.19 25-25 25h-1466.5c-13.809 0-25-11.19-25-25 0-13.8 11.191-25 25-25"
            fill="#2b333b"/><path
            d="m991.88 1028.2h1466.5c8.29 0 15 6.72 15 15 0 8.29-6.71 15-15 15h-1466.5c-8.285 0-15-6.71-15-15 0-8.28 6.715-15 15-15"
            fill="#2b333b"/><path
            d="m1023.4 1179.7 0.02-0.67c0.11-3.31 0.57-18.76 0.57-42.72 0.02-57.48-2.72-164.11-19.22-269.17-8.226-52.5-19.921-104.6-36.058-149.59-16.058-45.031-36.762-82.692-61.054-106.85-9.762-9.758-9.762-25.59 0-35.347 9.765-9.762 25.593-9.762 35.355 0 32.113 32.25 55.07 76.136 72.767 125.33 26.41 73.84 40.69 160.34 48.71 239.76 7.97 79.379 9.5 151.57 9.5 195.87 0 28.12-0.62 44.98-0.63 45.24-0.51 13.8-12.11 24.57-25.91 24.06s-24.57-12.12-24.05-25.91"
            fill="#2b333b"/><path
            d="m2372.2 1181.6c-0.01-0.26-0.64-17.12-0.64-45.24 0.02-59.08 2.71-167.68 19.83-276.92 8.59-54.649 20.75-109.47 38.38-158.71 17.7-49.192 40.66-93.078 72.77-125.33 9.77-9.762 25.59-9.762 35.36 0 9.76 9.757 9.76 25.589 0 35.347-24.29 24.16-45 61.821-61.06 106.85-24.23 67.508-38.32 150.9-46.02 227.89-7.74 77.019-9.26 147.75-9.26 190.87 0 13.69 0.15 24.6 0.31 32.06 0.07 3.73 0.15 6.59 0.2 8.51 0.03 0.96 0.05 1.68 0.07 2.15l0.02 0.67c0.51 13.79-10.26 25.4-24.05 25.91-13.8 0.51-25.4-10.26-25.91-24.06"
            fill="#2b333b"/><path
            d="m2685.4 2801.1v-2184.8c0-13.809 11.19-25 25-25 13.8 0 25 11.191 25 25v2184.8c0 13.81-11.2 25-25 25-13.81 0-25-11.19-25-25"
            fill="#2b333b"/><path
            d="m3703.4 837.64v22.441 434.99 789.39c0 64.83 2.8 129.45 2.8 194.93 0 14.17-0.14 28.14-0.14 41.94-0.01 39.95 1.21 78.42 9.94 116.54 4.18 18.34 9.94 36.79 18.2 52.42 8.27 15.68 18.81 28.33 32.64 36.57 10.66 6.34 22.75 9.33 35.45 9.34 13.87 0.01 28.38-3.66 41.47-10.35 13.1-6.67 24.73-16.33 33.09-27.84 15.15-20.8 22.17-46.86 22.17-74.01 0-17.88-3.06-36.12-8.67-53.15-4.85-14.8-11.43-28.3-20.75-37.94-8.09-8.42-18.53-14.52-30.73-19.1-12.17-4.57-25.95-7.51-39.86-9.77-38.2-6.22-77.62-6.89-117.69-6.88-9.76 0-19.56 0.04-29.38 0.04h-401.2v-30h401.2c9.75 0 19.54-0.04 29.38-0.04 40.37 0.01 81.42 0.6 122.51 7.27 14.82 2.42 30.46 5.64 45.57 11.29 15.08 5.65 29.77 13.86 41.83 26.41 13.93 14.54 21.98 32.29 27.62 49.34 6.56 19.97 10.17 41.24 10.17 62.53 0 32.21-8.32 64.7-27.91 91.66-11.42 15.68-26.66 28.2-43.71 36.91-17.07 8.7-36.01 13.62-55.11 13.63-17.42 0.01-35.05-4.18-50.8-13.57-19.82-11.8-33.81-29.33-43.83-48.35-10.04-19.08-16.36-39.88-20.91-59.72-9.55-41.83-10.67-82.73-10.69-123.23 0-14 0.15-27.97 0.15-41.94 0-64.61-2.8-129.24-2.81-194.93v-789.39-434.99-22.441h30"
            fill="#fbc5b2"/><path
            d="m3438.9 956.73-133.17-253.35c-29.9-56.899 11.36-125.2 75.64-125.2h603.48c64.28 0 105.55 68.3 75.64 125.2l-136.48 259.67-485.11-6.321"
            fill="#f3bb32"/><path
            d="m4060.5 703.38 13.27 6.98-263.45 501.24v895.88c-0.01 25.11-20.34 45.44-45.44 45.45h-163.51c-25.11-0.01-45.44-20.34-45.45-45.45v-895.88l-263.46-501.24c-7.94-15.097-11.65-31.109-11.65-46.668 0.02-26.41 10.55-51.41 28.36-69.941 17.77-18.531 43.22-30.602 72.21-30.57h603.48c28.99-0.032 54.44 12.039 72.21 30.57 17.81 18.52 28.34 43.52 28.36 69.941 0.01 15.551-3.71 31.571-11.66 46.668l-13.27-6.98-13.28-6.977c5.67-10.812 8.2-21.882 8.21-32.711 0.01-18.351-7.42-36.101-19.98-49.14-12.6-13.031-29.93-21.332-50.59-21.371h-603.48c-20.66 0.039-37.99 8.34-50.59 21.371-12.56 13.039-19.99 30.801-19.98 49.14 0.01 10.84 2.54 21.899 8.21 32.711l266.9 507.8v903.28c0.02 8.53 6.93 15.44 15.45 15.45h163.51c8.51-0.01 15.43-6.92 15.44-15.45v-903.28l266.9-507.8 13.28 6.977"
            fill="#2b333b"/><g clip-path="url(#a)"><path d="m3472.8 756.3h89.758v89.758h-89.758z" fill="#f5cb4b"/></g><path
            d="m3587 700.82c2.69 31.078 28.78 55.481 60.55 55.481 31.24 0 56.98-23.582 60.39-53.903l-120.94-1.578"
            fill="#f5cb4b"/><path
            d="m3638.2 827.82c-1.1 0-2.17 0.102-3.22 0.289l9.16 17.43v17.762c7.16-2.469 12.29-9.262 12.29-17.242 0-10.067-8.16-18.239-18.23-18.239"
            fill="#f5cb4b"/><path
            d="m3499.9 646.9c-15.49 0-28.04 12.563-28.04 28.051 0 15.492 12.55 28.051 28.04 28.051 11.89 0 22.05-7.398 26.14-17.84l-19.72-37.519c-2.06-0.481-4.21-0.743-6.42-0.743"
            fill="#f5cb4b"/><path
            d="m2556.5 2310c0-173.76 140.86-314.62 314.62-314.62 143.98 0 265.29 96.77 302.67 228.79h132.98c18.66 0 33.78 15.12 33.78 33.77v48.84l-784.05 3.22"
            fill="#65cbbb"/><path
            d="m3306.7 2340.5v15h-122.54v-15l14.94 1.44c-16.12 167.06-156.81 297.59-328.05 297.61-182.05 0-329.61-147.56-329.62-329.61 0.01-182.05 147.57-329.61 329.62-329.62 150.86 0.03 277.94 101.36 317.1 239.7l-14.43 4.09v-15h132.98c26.95 0.01 48.77 21.83 48.78 48.77v48.84c-0.01 26.94-21.83 48.77-48.78 48.78v-30c10.37-0.02 18.76-8.42 18.78-18.78v-48.84c-0.02-10.36-8.4-18.75-18.78-18.77h-144.33l-3.09-10.91c-35.59-125.7-151.12-217.91-288.23-217.88-82.79 0.01-157.6 33.51-211.86 87.76-54.25 54.27-87.75 129.08-87.76 211.86 0.01 82.79 33.51 157.59 87.76 211.86 54.26 54.24 129.07 87.75 211.86 87.75 155.64 0.03 283.56-118.73 298.18-270.49l1.31-13.56h136.16v15"
            fill="#2b333b"/><path
            d="m2844.6 1798.1c0 15.74 20.28 34.5 15.67 48.7-4.78 14.71-32.37 17.93-41.29 30.18-9 12.38-3.6 39.57-15.97 48.58-6.75 4.91-17.11 3.03-27.52 1.14-8.48-1.53-17-3.07-23.6-0.93-14.2 4.61-25.76 29.88-41.49 29.88-15.75 0-27.3-25.27-41.5-29.88-6.61-2.15-15.13-0.61-23.61 0.93-10.41 1.88-20.77 3.77-27.52-1.14-12.37-9.01-6.96-36.21-15.97-48.59-8.91-12.24-36.5-15.46-41.28-30.18-4.61-14.19 15.67-32.96 15.67-48.69 0-15.75-20.28-34.51-15.67-48.71 4.78-14.71 32.37-17.94 41.29-30.18 9-12.37 3.6-39.57 15.97-48.57 6.75-4.92 17.11-3.03 27.52-1.15 8.48 1.54 16.99 3.08 23.6 0.93 14.21-4.61 25.76-29.87 41.5-29.87 15.73 0 27.29 25.26 41.49 29.87 6.61 2.15 15.12 0.61 23.61-0.93 10.4-1.88 20.77-3.77 27.52 1.15 12.37 9 6.97 36.21 15.97 48.57 8.91 12.26 36.5 15.47 41.28 30.18 4.61 14.2-15.67 32.96-15.67 48.71"
            fill="#2b333b"/><path
            d="m2759.2 1749.2c26.99 26.98 26.99 70.73 0 97.71-26.98 27-70.73 27-97.72 0-26.98-26.98-26.98-70.73 0-97.71 26.99-26.99 70.74-26.99 97.72 0"
            fill="#7e8182"/><path
            d="m2759.2 1749.2-97.72 97.71c13.5 13.5 31.18 20.25 48.87 20.25 17.68 0 35.36-6.75 48.85-20.25 13.5-13.49 20.24-31.17 20.24-48.85 0-17.69-6.74-35.37-20.24-48.86"
            fill="#979a99"/><path
            d="m2587.3 591.31h392.4c13.81 0 25 11.191 25 25 0 13.812-11.19 25-25 25h-392.4c-13.8 0-25-11.188-25-25 0-13.809 11.2-25 25-25"
            fill="#2b333b"/><path
            d="m2602.8 621.9h258.08c13.81 0 25 11.204 25 25 0 13.813-11.19 25-25 25h-258.08c-13.81 0-25-11.187-25-25 0-13.796 11.19-25 25-25"
            fill="#2b333b"/><path
            d="m2641.2 649.95h169.97c13.8 0 25 11.192 25 25 0 13.813-11.2 25-25 25h-169.97c-13.81 0-25-11.187-25-25 0-13.808 11.19-25 25-25"
            fill="#2b333b"/><path
            d="m3009.9 2308.4c0 44.21-35.84 80.05-80.06 80.05-44.21 0-80.05-35.84-80.05-80.05 0-44.22 35.84-80.06 80.05-80.06 44.22 0 80.06 35.84 80.06 80.06"
            fill="#65cbbb"/><path
            d="m2848.9 2443.1c0 20.82-16.88 37.68-37.69 37.68-20.82 0-37.69-16.86-37.69-37.68 0-20.81 16.87-37.69 37.69-37.69 20.81 0 37.69 16.88 37.69 37.69"
            fill="#65cbbb"/><path
            d="m2967.7 2480.8c0 10.64-8.62 19.25-19.24 19.25-10.63 0-19.25-8.61-19.25-19.25 0-10.62 8.62-19.24 19.25-19.24 10.62 0 19.24 8.62 19.24 19.24"
            fill="#65cbbb"/><path
            d="m3027.6 2425.3c0 9.8-7.94 17.74-17.73 17.74-9.8 0-17.74-7.94-17.74-17.74 0-9.79 7.94-17.73 17.74-17.73 9.79 0 17.73 7.94 17.73 17.73"
            fill="#65cbbb"/><path
            d="m2890.6 2551.2c0 16.42-13.31 29.72-29.72 29.72s-29.72-13.3-29.72-29.72c0-16.41 13.31-29.72 29.72-29.72s29.72 13.31 29.72 29.72"
            fill="#65cbbb"/><path
            d="m4396.4 564.4c154.27 0 279.33 65.071 279.33 219.34 0 28.551-4.3 56.082-12.26 82.032h-534.14c-7.96-25.95-12.27-53.481-12.27-82.032 0-154.27 125.07-219.34 279.34-219.34"
            fill="#f35c6f"/><path
            d="m4479.3 1549.7h-165.72v84.66c0 13.84 11.23 25.07 25.08 25.07h115.55c13.86 0 25.09-11.23 25.09-25.07v-84.66"
            fill="#2b333b"/><path
            d="m4327.3 643.2c-11.93 0-21.61 9.68-21.61 21.621 0 11.942 9.68 21.621 21.61 21.621 11.94 0 21.61-9.679 21.61-21.621 0-11.941-9.67-21.621-21.61-21.621"
            fill="#e72e3c"/><path
            d="m4303.8 744.64c-13.02 0-23.57 10.558-23.57 23.578 0 13.019 10.55 23.582 23.57 23.582 13.03 0 23.58-10.563 23.58-23.582 0-13.02-10.55-23.578-23.58-23.578"
            fill="#e72e3c"/><path
            d="m4407.2 631.49c-6.47 0-11.71 5.254-11.71 11.711 0 6.481 5.24 11.723 11.71 11.723s11.72-5.242 11.72-11.723c0-6.457-5.25-11.711-11.72-11.711"
            fill="#e72e3c"/><path
            d="m4244.3 686.44c-6.74 0-12.2 5.45-12.2 12.188 0 6.742 5.46 12.203 12.2 12.203s12.19-5.461 12.19-12.203c0-6.738-5.45-12.188-12.19-12.188"
            fill="#e72e3c"/><path
            d="m4388.9 710.83c-6.43 0-11.65 5.207-11.65 11.637 0 6.433 5.22 11.64 11.65 11.64 6.42 0 11.64-5.207 11.64-11.64 0-6.43-5.22-11.637-11.64-11.637"
            fill="#e72e3c"/><path
            d="m4327.3 1451h79.89c8.28 0 15 6.71 15 15 0 8.28-6.72 15-15 15h-79.89c-8.28 0-15-6.72-15-15 0-8.29 6.72-15 15-15"
            fill="#2b333b"/><path
            d="m4328.2 1234h20v263.32h96.35v-263.32c0-9.18 6.23-17.16 15.13-19.4 28.25-7.08 54.66-18.82 78.41-34.34 7.94-5.19 18.38-4.1 25.08 2.6l81.22 81.21 24.62-24.62-77.52-77.51c-7.47-7.47-7.84-19.48-0.84-27.39 3.13-3.45 7.73-11.08 12.08-21.45 7.75-18.19 15.3-44.63 21.85-74.46 9.86-44.81 17.7-97.458 23.02-144.46 5.33-46.93 8.13-88.621 8.11-110.43-0.02-35.879-7.21-65.547-19.78-90.289-18.87-36.988-50.09-63.789-91.42-82.008-41.24-18.14-92.38-27.062-148.13-27.043-74.41-0.058-140.35 15.922-186.02 48.184-22.91 16.137-40.95 36.148-53.54 60.867-12.56 24.742-19.76 54.41-19.78 90.289-0.03 30.461 5.35 71.992 15.45 116.85 15.09 67.351 40.78 142.6 73.19 202.54 16.16 29.97 34.02 56.09 52.47 75.42 18.46 19.42 37.27 31.68 54.92 36.05 8.9 2.23 15.13 10.21 15.13 19.39h-20l-4.86 19.4c-18.54-4.65-35.66-14.01-51.41-26.4-27.56-21.76-51.42-52.89-72.58-89.05-31.64-54.26-56.94-120.13-74.62-183.73-17.63-63.68-27.64-124.69-27.69-170.47-0.02-41.25 8.42-77.558 24.12-108.42 23.54-46.39 63.15-79.578 110.99-100.51 47.93-21 104.28-30.379 164.23-30.411 79.86 0.071 153.59 16.622 209.02 55.461 27.64 19.422 50.51 44.59 66.19 75.461 15.7 30.852 24.14 67.168 24.12 108.42-0.01 18.883-1.71 47.692-4.92 81.742-4.82 51.02-13.02 113.32-24.27 168.19-5.64 27.45-12.01 53.02-19.31 74.69-3.65 10.84-7.53 20.72-11.82 29.51-4.31 8.79-8.93 16.51-14.77 23.16l-14.99-13.25 14.15-14.14 91.66 91.66c3.72 3.73 5.85 8.88 5.85 14.14 0 5.27-2.13 10.42-5.85 14.15l-52.9 52.9c-7.82 7.81-20.48 7.81-28.29 0l-95.36-95.35 14.14-14.15 10.94 16.74c-27.38 17.9-57.9 31.47-90.56 39.66l-4.86-19.4h20v283.31c0 5.27-2.13 10.42-5.86 14.15-3.72 3.72-8.87 5.85-14.14 5.85h-136.35c-5.26 0-10.42-2.13-14.14-5.85-3.72-3.73-5.86-8.88-5.86-14.15v-283.31h20l-4.86 19.4 4.86-19.4"
            fill="#2b333b"/><path
            d="m4590.3 1237.6 54.57-51.24c6.04-5.67 15.53-5.37 21.2 0.67s5.37 15.53-0.67 21.2l-54.57 51.24c-6.04 5.67-15.53 5.37-21.2-0.67s-5.37-15.53 0.67-21.2"
            fill="#2b333b"/><path
            d="m5737 593.06h-186.63c-40.29 0-72.96 32.66-72.96 72.961v279.51h332.55v-279.51c0-40.301-32.66-72.961-72.96-72.961"
            fill="#ade3dc"/><path
            d="m5737 593.06v20h-186.63c-14.69 0.011-27.8 5.89-37.45 15.511-9.61 9.649-15.5 22.762-15.51 37.45v455.73h292.55v-455.73c-0.01-14.688-5.9-27.801-15.51-37.45-9.65-9.621-22.76-15.5-37.45-15.511v-40c51.35 0.011 92.95 41.613 92.96 92.961v475.73c0 5.26-2.13 10.42-5.86 14.14-3.72 3.72-8.87 5.86-14.14 5.86h-332.55c-5.26 0-10.42-2.14-14.14-5.86s-5.86-8.88-5.86-14.14v-475.73c0.02-51.348 41.61-92.95 92.96-92.961h186.63v20"
            fill="#2b333b"/><path
            d="m5533.9 1013.1h37.68c5.52 0 10 4.47 10 10 0 5.52-4.48 10-10 10h-37.68c-5.53 0-10-4.48-10-10 0-5.53 4.47-10 10-10"
            fill="#2b333b"/><path
            d="m5533.9 952.15h37.68c5.52 0 10 4.481 10 10 0 5.524-4.48 10-10 10h-37.68c-5.53 0-10-4.476-10-10 0-5.519 4.47-10 10-10"
            fill="#2b333b"/><path
            d="m5533.9 891.19h37.68c5.52 0 10 4.481 10 10 0 5.52-4.48 10-10 10h-37.68c-5.53 0-10-4.48-10-10 0-5.519 4.47-10 10-10"
            fill="#2b333b"/><path
            d="m5533.9 830.22h37.68c5.52 0 10 4.48 10 10 0 5.531-4.48 10-10 10h-37.68c-5.53 0-10-4.469-10-10 0-5.52 4.47-10 10-10"
            fill="#2b333b"/><path
            d="m5533.9 769.26h37.68c5.52 0 10 4.468 10 10 0 5.519-4.48 10-10 10h-37.68c-5.53 0-10-4.481-10-10 0-5.532 4.47-10 10-10"
            fill="#2b333b"/><path
            d="m5533.9 708.29h37.68c5.52 0 10 4.481 10 10 0 5.52-4.48 10-10 10h-37.68c-5.53 0-10-4.48-10-10 0-5.519 4.47-10 10-10"
            fill="#2b333b"/><path
            d="m6123.5 1315.5-1.75-88.83c-0.29-14.54 8.23-27.82 21.57-33.62l20.74-9.04 21.87-9.51c13.18-5.74 28.52-3.05 38.97 6.82l65.28 61.63-166.68 72.55"
            fill="#2b333b"/><path
            d="m6344.6 1402.9 24.35 17.7-24.56-17.4 0.21-0.3 24.35 17.7-24.56-17.4s0.98-1.38 2.71-4.12c6.09-9.58 21.26-35.55 34.73-74.52 13.49-39.01 25.32-90.88 25.33-153.15-0.08-73.49-16.22-161.65-67.51-262.7l106.97-54.39c59.74 117.32 80.61 225.65 80.54 317.09-0.01 91.51-20.54 165.83-41.34 217.6-20.83 51.82-41.91 81.34-44.15 84.45l-97.07-70.56"
            fill="#2b333b"/><path
            d="m6290.2 1243-166.68 72.55 238.57 548.16c12.38 28.44 45.47 41.46 73.92 29.08l63.69-27.72c28.43-12.37 41.45-45.47 29.08-73.91l-238.58-548.16"
            fill="#2b333b"/><path
            d="m6528.8 1776.1c-1.99 0-4.02 0.4-5.98 1.25l-166.69 72.55c-3.65 1.58-6.51 4.56-7.97 8.26s-1.38 7.84 0.21 11.48c11.31 25.98 36.93 42.77 65.28 42.77 9.8 0 19.34-1.99 28.37-5.93l63.69-27.72c17.44-7.58 30.86-21.49 37.83-39.19 6.96-17.69 6.61-37.03-0.98-54.45-2.45-5.65-7.97-9.02-13.76-9.02"
            fill="#ade3dc"/><path
            d="m6413.6 1927.4c-34.32 0-65.34-20.33-79.04-51.79-6.61-15.19 0.35-32.87 15.54-39.48l166.69-72.55c3.89-1.7 7.96-2.5 11.95-2.5 11.58 0 22.61 6.74 27.53 18.04 9.18 21.1 9.6 44.52 1.17 65.94-8.43 21.41-24.69 38.27-45.79 47.45l-63.69 27.72c-10.94 4.76-22.5 7.17-34.36 7.17zm0-30c7.48 0 15.08-1.5 22.39-4.68l63.69-27.72c28.43-12.37 41.45-45.47 29.08-73.91l-166.69 72.55c9.2 21.14 29.85 33.76 51.53 33.76"
            fill="#2b333b"/><path
            d="m6281.1 1240.9-155.13 67.52c-12.17 5.29-17.75 19.45-12.45 31.63l111.31 255.75c5.3 12.17 19.47 17.75 31.63 12.44l155.13-67.52c12.18-5.29 17.75-19.45 12.45-31.63l-111.31-255.75c-5.3-12.17-19.46-17.74-31.63-12.44"
            fill="#65cbbb"/><path
            d="m6281.1 1240.9 5.99 13.75-155.14 67.52c-3.41 1.47-5.42 4.8-5.44 8.3 0.01 1.2 0.24 2.39 0.76 3.59l111.32 255.75c1.46 3.41 4.8 5.42 8.29 5.44 1.2 0 2.38-0.23 3.59-0.76l155.13-67.52c3.43-1.47 5.42-4.79 5.44-8.3 0-1.19-0.23-2.38-0.76-3.6l-111.3-255.74c-1.47-3.42-4.81-5.42-8.3-5.44-1.19 0.01-2.37 0.24-3.58 0.76l-6-13.75-5.99-13.75c5.03-2.2 10.36-3.26 15.57-3.26 15.06-0.01 29.39 8.79 35.8 23.46l111.32 255.76c2.19 5.04 3.25 10.36 3.24 15.56 0.02 15.06-8.78 29.41-23.47 35.81l-155.12 67.52c-5.03 2.19-10.36 3.25-15.57 3.25-15.06 0.02-29.4-8.78-35.8-23.47l-111.32-255.74c-2.19-5.04-3.25-10.36-3.24-15.57-0.02-15.06 8.78-29.4 23.46-35.81l155.14-67.51 5.98 13.75"
            fill="#2b333b"/><path
            d="m6393.2 1301.5c-75.39 0-136.72 61.32-136.72 136.71 0 75.38 61.33 136.71 136.72 136.71s136.72-61.33 136.72-136.71c0-75.39-61.33-136.71-136.72-136.71"
            fill="#ade3dc"/><path
            d="m6393.2 1589.9c-83.66 0-151.72-68.05-151.72-151.71s68.06-151.71 151.72-151.71 151.72 68.05 151.72 151.71-68.06 151.71-151.72 151.71zm0-30c67.22 0 121.72-54.49 121.72-121.71s-54.5-121.71-121.72-121.71-121.72 54.49-121.72 121.71 54.5 121.71 121.72 121.71"
            fill="#2b333b"/><path
            d="m6459.3 1438.2c0 36.52-29.6 66.12-66.12 66.12-36.51 0-66.12-29.6-66.12-66.12s29.61-66.12 66.12-66.12c36.52 0 66.12 29.6 66.12 66.12"
            fill="#2b333b"/><path d="m6469.6 928.06h-480.77l215.32-215.33h336.7v144.08c0 39.339-31.91 71.25-71.25 71.25"
                                  fill="#2b333b"/><path
            d="m5984.3 913.06c-14.95 0-27.09 12.152-27.09 27.089v5.653c0 19.57 15.92 35.5 35.49 35.5h313.83c19.58 0 35.51-15.93 35.51-35.5v-32.742h-357.74"
            fill="#65cbbb"/><path
            d="m6306.6 996.3h-313.83c-27.84 0-50.49-22.66-50.49-50.5v-5.653c0-23.218 18.87-42.089 42.08-42.089h372.74v47.742c0 27.84-22.65 50.5-50.5 50.5zm0-30c11.32 0 20.5-9.18 20.5-20.5v-17.742h-342.74c-6.67 0-12.08 5.41-12.08 12.089v5.653c0 11.32 9.18 20.5 20.49 20.5h313.83"
            fill="#2b333b"/><path d="m6327.1 945.8v-17.742h-342.74c-6.67 0-12.08 5.41-12.08 12.089l354.82 5.653"
                                  fill="#ade3dc"/><path
            d="m6156.8 618.75c-11.05 0-20 8.961-20 20v75c0 25.602 20.82 46.43 46.41 46.43h357.67c11.04 0 20-8.961 20-20v-101.43c0-11.039-8.96-20-20-20h-384.08"
            fill="#65cbbb"/><path
            d="m6540.9 780.18h-357.67c-36.62 0-66.41-29.801-66.41-66.43v-75c0-22.09 17.91-40 40-40h384.08c22.09 0 40 17.91 40 40v101.43c0 22.09-17.91 40-40 40zm0-40v-101.43h-384.08v75c0 14.59 11.82 26.43 26.41 26.43h357.67"
            fill="#2b333b"/><path d="m6156.8 638.75h384.08v18.289h-384.08z" fill="#ade3dc"/><path
            d="m6419.3 1886-12.47-29.93c-1.06-2.55 0.14-5.47 2.69-6.54 2.55-1.06 5.48 0.15 6.54 2.7l12.47 29.93c1.06 2.55-0.14 5.47-2.69 6.54-2.55 1.06-5.48-0.15-6.54-2.7"
            fill="#2b333b"/><path
            d="m6443.2 1876.1-12.47-29.93c-1.06-2.55 0.14-5.48 2.69-6.54s5.48 0.15 6.54 2.69l12.47 29.94c1.06 2.55-0.15 5.47-2.69 6.53-2.55 1.07-5.48-0.14-6.54-2.69"
            fill="#2b333b"/><path
            d="m6467 1866.2-12.48-29.92c-1.06-2.55 0.15-5.48 2.7-6.54s5.47 0.14 6.54 2.69l12.47 29.92c1.06 2.55-0.15 5.48-2.7 6.54-2.54 1.06-5.47-0.14-6.53-2.69"
            fill="#2b333b"/><path
            d="m6490.8 1856.3-12.47-29.93c-1.06-2.55 0.15-5.48 2.69-6.54 2.55-1.06 5.48 0.14 6.54 2.69l12.47 29.93c1.07 2.55-0.14 5.48-2.69 6.54s-5.47-0.14-6.54-2.69"
            fill="#2b333b"/><path
            d="m6127.4 1344.4 142.1-58.74c2.56-1.05 5.48 0.16 6.54 2.71 1.05 2.56-0.16 5.48-2.72 6.53l-142.09 58.74c-2.56 1.06-5.48-0.15-6.54-2.71-1.05-2.55 0.16-5.47 2.71-6.53"
            fill="#2b333b"/><path
            d="m5809.9 681.02h-166.28c-8.28 0-15-6.719-15-15 0-8.29 6.72-15 15-15h166.28c8.29 0 15 6.71 15 15 0 8.281-6.71 15-15 15"
            fill="#2b333b"/><path
            d="m3550.9 700.35-78.94-150.17c-17.72-33.739 6.74-74.219 44.84-74.219h357.73c38.1 0 62.56 40.48 44.83 74.219l-80.9 153.91-287.56-3.738"
            fill="#e94959"/><path
            d="m3919.4 550.18 13.28 6.98-155.47 295.78v264.29c-0.01 18.25-14.79 33.04-33.05 33.04h-96.92c-18.25 0-33.04-14.78-33.05-33.04v-264.29l-155.47-295.79c-5.17-9.816-7.61-20.316-7.6-30.5 0.01-17.296 6.88-33.597 18.51-45.699 11.59-12.109 28.33-20.019 47.21-19.988h357.73c18.88-0.031 35.61 7.879 47.2 19.988 11.63 12.102 18.5 28.403 18.52 45.699 0 10.184-2.44 20.684-7.61 30.5l-13.28-6.968-13.27-6.981c2.89-5.539 4.15-11.09 4.16-16.551 0.01-9.226-3.76-18.289-10.14-24.898-6.41-6.598-15.03-10.758-25.58-10.789h-357.73c-10.56 0.031-19.18 4.191-25.59 10.789-6.37 6.609-10.15 15.66-10.13 24.898 0.01 5.461 1.26 11.012 4.16 16.551l158.91 302.34v271.69c0.01 1.68 1.37 3.04 3.05 3.04h96.92c1.68 0 3.04-1.36 3.05-3.04v-271.69l158.92-302.34 13.27 6.981"
            fill="#2b333b"/><path
            d="m3597.6 581.54c-14.69 0-26.6 11.91-26.6 26.602 0 14.699 11.91 26.609 26.6 26.609s26.6-11.91 26.6-26.609c0-14.692-11.91-26.602-26.6-26.602"
            fill="#f06373"/><path
            d="m3674.6 509.49c-19.89 0-36.02 16.117-36.02 36.028 0 19.89 16.13 36.019 36.02 36.019 19.9 0 36.03-16.129 36.03-36.019 0-19.911-16.13-36.028-36.03-36.028"
            fill="#f06373"/><path
            d="m3669.1 623.94c-5.97 0-10.81 4.84-10.81 10.809 0 5.961 4.84 10.809 10.81 10.809s10.81-4.848 10.81-10.809c0-5.969-4.84-10.809-10.81-10.809"
            fill="#f06373"/><path
            d="m3587.1 516.7c-9.18 0-16.63 7.442-16.63 16.621 0 9.192 7.45 16.629 16.63 16.629s16.63-7.437 16.63-16.629c0-9.179-7.45-16.621-16.63-16.621"
            fill="#f06373"/><path
            d="m3629.2 1062h66.51c8.29 0 15 6.72 15 15 0 8.29-6.71 15-15 15h-66.51c-8.28 0-15-6.71-15-15 0-8.28 6.72-15 15-15"
            fill="#2b333b"/><path
            d="m6859.7 4241h15c-0.01 158.28-128.3 286.56-286.57 286.57-158.28-0.01-286.58-128.29-286.59-286.57 0.01-158.28 128.31-286.57 286.59-286.58 158.27 0.01 286.56 128.3 286.57 286.58h-30c-0.01-70.9-28.7-134.95-75.15-181.43-46.48-46.45-110.53-75.14-181.42-75.15-70.9 0.01-134.96 28.7-181.44 75.15-46.45 46.48-75.14 110.53-75.15 181.43 0.01 70.9 28.7 134.95 75.15 181.42 46.48 46.46 110.53 75.15 181.44 75.15 70.89 0 134.94-28.69 181.42-75.15 46.45-46.47 75.14-110.52 75.15-181.42h15"
            fill="#2b333b"/><path
            d="m6072.7 4201.1h15c-0.01 96.44-78.18 174.6-174.62 174.61-96.45-0.01-174.61-78.17-174.62-174.61 0.01-96.46 78.17-174.61 174.62-174.63 96.44 0.02 174.61 78.17 174.62 174.63h-30c-0.01-39.99-16.17-76.05-42.36-102.27-26.22-26.19-62.28-42.35-102.26-42.36-39.99 0.01-76.05 16.17-102.26 42.36-26.2 26.22-42.35 62.28-42.36 102.27 0.01 39.98 16.16 76.03 42.36 102.25 26.21 26.2 62.27 42.35 102.26 42.36 39.98-0.01 76.04-16.16 102.26-42.36 26.19-26.22 42.35-62.27 42.36-102.25h15"
            fill="#2b333b"/><path
            d="m6337.4 3762.4h15c-0.01 80.85-65.53 146.36-146.37 146.37-80.84-0.01-146.36-65.52-146.37-146.37 0.01-80.84 65.53-146.36 146.37-146.37 80.84 0.01 146.36 65.53 146.37 146.37h-30c0-32.18-13-61.18-34.08-82.29-21.11-21.08-50.11-34.07-82.29-34.08-32.18 0.01-61.18 13-82.29 34.08-21.08 21.11-34.07 50.11-34.08 82.29 0.01 32.18 13 61.18 34.08 82.29 21.11 21.08 50.11 34.08 82.29 34.08s61.18-13 82.29-34.08c21.08-21.11 34.08-50.11 34.08-82.29h15"
            fill="#2b333b"/><path
            d="m6739.1 3276.2h15c-0.01 91.68-74.31 165.98-165.98 165.99-91.68-0.01-165.98-74.31-165.99-165.99 0.01-91.68 74.31-165.97 165.99-165.98 91.67 0.01 165.97 74.3 165.98 165.98h-30c-0.01-37.6-15.2-71.5-39.83-96.15-24.65-24.64-58.55-39.83-96.15-39.83s-71.51 15.19-96.16 39.83c-24.63 24.65-39.82 58.55-39.83 96.15 0.01 37.6 15.2 71.5 39.83 96.16 24.65 24.63 58.56 39.82 96.16 39.83 37.6-0.01 71.5-15.2 96.15-39.83 24.63-24.66 39.82-58.56 39.83-96.16h15"
            fill="#2b333b"/><path
            d="m7317.2 3762.4h15c-0.01 124.18-100.66 224.83-224.84 224.84-124.19-0.01-224.83-100.66-224.84-224.84 0.01-124.18 100.65-224.83 224.84-224.84 124.18 0.01 224.83 100.66 224.84 224.84h-30c-0.01-53.85-21.79-102.46-57.07-137.77-35.3-35.28-83.92-57.06-137.77-57.07-53.85 0.01-102.47 21.79-137.78 57.07-35.28 35.31-57.05 83.92-57.06 137.77 0.01 53.85 21.78 102.46 57.06 137.77 35.31 35.28 83.93 57.06 137.78 57.07 53.85-0.01 102.47-21.79 137.77-57.07 35.28-35.31 57.06-83.92 57.07-137.77h15"
            fill="#2b333b"/><path
            d="m6027 3276.2h15c-0.01 71.21-57.71 128.92-128.92 128.93-71.21-0.01-128.92-57.72-128.93-128.93 0.01-71.21 57.72-128.91 128.93-128.92 71.21 0.01 128.91 57.71 128.92 128.92h-30c-0.01-27.36-11.05-52-28.97-69.95-17.95-17.92-42.59-28.97-69.95-28.97-27.37 0-52 11.05-69.95 28.97-17.93 17.95-28.97 42.59-28.98 69.95 0.01 27.37 11.05 52 28.98 69.95 17.95 17.93 42.58 28.97 69.95 28.98 27.36-0.01 52-11.05 69.95-28.98 17.92-17.95 28.96-42.58 28.97-69.95h15"
            fill="#2b333b"/><path
            d="m5792 3815.4h15c-0.01 51.61-41.84 93.43-93.45 93.44-51.62-0.01-93.44-41.83-93.45-93.44 0.01-51.62 41.83-93.45 93.45-93.46 51.61 0.01 93.44 41.84 93.45 93.46h-30c0-17.57-7.08-33.34-18.58-44.87-11.53-11.51-27.3-18.58-44.87-18.59-17.57 0.01-33.34 7.08-44.87 18.59-11.5 11.53-18.57 27.3-18.58 44.87 0.01 17.56 7.08 33.33 18.58 44.86 11.53 11.51 27.3 18.58 44.87 18.58s33.34-7.07 44.87-18.58c11.5-11.53 18.58-27.3 18.58-44.86h15"
            fill="#2b333b"/></g></g></svg>
